/* XPM */
static char *Egg_And_Nest[] = {
/* columns rows colors chars-per-pixel */
"64 16 8 1 ",
"  c #957A4B",
". c #90625D",
"X c #B09643",
"o c #BFA954",
"O c #D4C169",
"+ c #E8CFA6",
"@ c #F3F2C0",
"# c None",
/* pixels */
"################################################################",
"################################################################",
"################################################################",
"################################################################",
"################################################################",
"################################################################",
"#######..##############################..#######################",
"######.@@.#############..#############.@@.######################",
"#####.@@@+.###########.@@.########## .@@@+. ########        ####",
"#####.@@@+.##########.@@@+.######## o.@@@+.o ###### oOOooOOo ###",
"#####.@@@+.##########.@@@+.####### OO @@@+ OO #### OO XXXX OO ##",
"#####.@@++.###########@@@+######## oOO    OOo #### oOO    OOo ##",
"######....######################## XooooooooX #### XooooooooX ##",
"################################### XXoooXXo ###### XXoooXXo ###",
"####################################        ########        ####",
"################################################################"
};
