/* XPM */
static char *Free_Cow_Sprites[] = {
/* columns rows colors chars-per-pixel */
"96 64 8 1 ",
"  c #754C60",
". c #90625D",
"X c #BE9F8A",
"o c #D99A9A",
"O c #DCB98A",
"+ c #E8B5AC",
"@ c #F3E5C2",
"# c None",
/* pixels */
"################################################################################################",
"################################################################################################",
"################################################################################################",
"################################################################################################",
"################################################################################################",
"################################################################################################",
"################################################################################################",
"################################################################################################",
"################################################################################################",
"################################################################################################",
"################################################################################################",
"################################################################################################",
"##################..##..##########################..##..##########################..##..########",
"#################.@.##.@.########################.@.##.@.########################.@.##.@.#######",
"##############..#.@....@.##..#################..#.@....@.##..#################..#.@....@.##..###",
"#############.@@..OOOOO@@..@@.###############.@@..OOOOO@@..@@.###############.@@..OOOOO@@..@@.##",
"#########.....@@@@OOOOO@@@.@@.###########.....@@@@OOOOO@@@.@@.###########.....@@@@OOOOO@@@.@@.##",
"#######..OOO@.++@OOO O@@ @.++.#########..OOO@.++@OOOOO@@@@.++.#########..OOO@.++@OOO O@@ @.++.##",
"######.OOOOO@@...OOO @@@ @@..#########.OOOOO@@...OO  @@@  @..#########.OOOOO@@...OOO @@@ @@..###",
"######.OOOO@@@@@@@@@@@@@@@@.##########.OOOO@@@@@@@@@@@@@@@@.#######..#.OOOO@@@@@@@@@@@@@@@@.####",
"#####..OO@@@@@@@@@@@@++++++.#########..OO@@@@@@@@@@@@++++++.#######.O..OO@@@@@@@@@@@@++++++.####",
"####.O.@@@@@@OO@@.@@++o++o+.########.O.@@@@@@OO@@.@@++o++o+.########.O.@@@@@@OO@@.@@++o++o+.####",
"###.O..@@@@@OOOO@@.@+++++++.#######.O..@@@@@OOOO@@.@+++++++.#########..@@@@@OOOO@@.@+++++++.####",
"###..#.@@@@@@OO@@@@........########..#.@@@@@@OO@@@@........###########.@@@@@@OO@@@@........#####",
"######.OOOO@@@@@@@OOO.################.OOOO@@@@@@@OOO.################.OOOO@@@@@@@OOO.##########",
"######.OOOOOOOOOOOOOO.################.OOOOOOOOOOOOOO.################.OOOOOOOOOOOOOO.##########",
"#######.OO....OO...OO.#################.OO....OO...OO.#################.OO....OO...OO.##########",
"#######.OO.##.OO.#.OO.#################.OO.##.OO.#.OO.#################.OO.##.OO.#.OO.##########",
"########..####..###..###################..####..###..###################..####..###..###########",
"################################################################################################",
"################################################################################################",
"################################################################################################",
"################################################################################################",
"################################################################################################",
"################################################################################################",
"################################################################################################",
"################################################################################################",
"################################################################################################",
"################################################################################################",
"################################################################################################",
"################################################################################################",
"################################################################################################",
"################################################################################################",
"################################################################################################",
"##################################################..##..########################################",
"##################..##..#########################.@.##.@.#######################################",
"#################.@.##.@.#####################..#.@....@.##..###################################",
"##############..#.@....@.##..################.@@..OOOOO@@..@@.##################################",
"#########.....@@..OOOOO@@..@@.###########.....@@@@OOOOO@@@.@@.##################################",
"#######..OOO@.@@@@OOOOO@@@.@@.#########..OOO@.++@OOO O@@ @.++.##################################",
"######.OOOOO@.++@OOO O@@ @.++.########.OOOOO@@...OOO @@@ @@..###################################",
"######.OOOO@@@...OOO @@@ @@..#########.OOOO@@@@@@@@@@@@@@@@.####################################",
"#####..OO@@@@@@@@@@@@@@@@@@.#########..OO@@@@@@@@@@@@++++++.####################################",
"####.O.@@@@@@OO@@@@@@++++++.########.O.@@@@@@OO@@.@@++o++o+.####################################",
"###.O..@@@@@OOOO@.@@++o++o+.#######.O..@@@@@OOOO@@.@+++++++.####################################",
"###..#.@@@@@@OO@@@.@+++++++.#######..#.@@@@@@OO@@@@........#####################################",
"######.OOOO@@@@@@@O........###########.OOOO@@@@@@@OOO.##########################################",
"#####.OOOOOOOOOOOOOO.#################.OOOOOOOOOOOOOO.##########################################",
"####.OOO..........OOO.###############.X..OOO...OOO...X.#########################################",
"####.OO.##.XX.#.XX.OO.###############.XX..OO.#.OO.#.XX.#########################################",
"#####..####..###..#..#################..##..###..###..##########################################",
"################################################################################################",
"################################################################################################",
"################################################################################################"
};
