/* XPM */
static char *Tools[] = {
/* columns rows colors chars-per-pixel */
"96 96 13 1 ",
"  c #545959",
". c #6B7470",
"X c #90625D",
"o c #AA7959",
"O c #5C4E92",
"+ c #818181",
"@ c #818B83",
"# c #9DA89A",
"$ c #B7B7B7",
"% c #C1C8B9",
"& c #DDD5DE",
"* c #F3F2C0",
"= c None",
/* pixels */
"================================================================================================",
"================================================================================================",
"======================================================...=============================...=======",
"==========================. ==========================.@.=============================.@.=======",
"======================. =.#@ ========================.....===========================..@..======",
"..==.....============.%% #  @ ========...===========.%   %.==========.....==========.%.@.%.=====",
".#..%   %...========.  %@ = @ =======.....==========.%   %.=========.%   %.=========.% @ %.=====",
".@#.#%%%@.##.======.% %##@ @ =======.%   %.========= @%%%@ =========.@%%%@.========= @   @ =====",
"= @ ####@   @ =====.%%####@ ========.@%%%@.========= @###@ ========= @@@@@ ========= @@@@@ =====",
"==  ####@ = @ ====.. #####@ ======== @# #@ ========= @# #@ ========= @...@ ========= @@@@@ =====",
"=== @###@   @ ===.### ###@ ========= @###@ ========= @###@ ========= @.@.@ ========= @@@@@ =====",
"=== @@@@@ @@ ====.     @@ ========== @@@@@ ==========     ========== @.@.@ ==========     ======",
"====     =  ===========  =========== @@@@@ ========================== .@. ======================",
"=====================================     ============================ @ =======================",
"======================================================================   =======================",
"================================================================================================",
"================================================================================================",
"================================================================================================",
"======================================================...=============================...=======",
"==========================. =OO=======================.@.============================OO@.=======",
"======================. =.#@ &*O=====================.....==========================O*&O..======",
"..==.....============.%% #  @ *O======...===========.%   %.==========.....==========O*&O.%.=====",
".#..%   %...========.  %@ = @ O======.....==========.%   %.=========.%   %.=========.OO@ %.=====",
".@#.#%%%@.##.======.% %##@ @ =======.%   %.========= @%%%@ =========.@%%%@.========= @   @ =====",
"= @ ####@   @ =====.%%####@ ========.@%%%@.========= @###@ ========= @@@@@ ========= @@@@@ =====",
"==  ####@ = @ O===.. #####@ ======== @# #@ ========= @# #@ ========= @...@ ========= @@@@@ =====",
"=== @###@   @ *O=.### ###@ ========= @###@ ========= @###@ ========= @.@.@ ========= @@@@@ =====",
"=== @@@@@ @@ &*O=.     @@ ========== @@@@@ ==========     ========== @OO.@ ==========     ======",
"====     =  =OO========  =========== @@@@@ ==========================O*&O ======================",
"=====================================     ===========================O*&O=======================",
"======================================================================OO =======================",
"================================================================================================",
"==========================================$==========================================$==========",
"=========================================$++=+====================================+=++$=========",
"=========================================$++++====================================++++$=========",
"=====================+===================$++++===========================+========++++$=========",
"==================$++++==================$++X+==========================++++$=====+X++$=========",
"==================$+++o===================$oX===========================o+++$======Xo$==========",
"===================$++Xo===================oX==========================oX++$=======Xo===========",
"====================$$=Xo==================oX=========================oX=$$========Xo===========",
"========================Xo=================oX========================oX============Xo===========",
"=========================Xo================oX=======================oX=============Xo===========",
"==========================X================oX=======================X==============Xo===========",
"=++++======================================================++++=================================",
"==++XXXXXXX==========================================XXXXXXX++==================================",
"=++++oooooo==========================================oooooo++++=================================",
"$++++$====================================================$++++$================================",
"=$$$$======================================================$$$$=================================",
"==========================================$==========================================$==========",
"=========================================$++=+====================================+=++$=========",
"=========================================$++++====================================++++$=========",
"======================+==================$++++===========================+========++++$=========",
"===================$++++=================$++X+==========================++++$=====+X++$=========",
"===================$+++o==================$oX===========================o+++$======Xo$==========",
"====================$++Xo==================oX==========================oX++$=======Xo===========",
"=====================$$=Xo=================oX=========================oX=$$========Xo===========",
"=========================XOO===============oOO======================OOX===========OOo===========",
"=========================O&*O==============O&&O====================O*&O==========O&&O===========",
"=========OO==============O&*O==============O**O======OO============O*&O==========O**O===========",
"=++++===O**O==============OO================OO======O**O===++++=====OO============OO============",
"==++XXXXO&&O========================================O&&OXXXX++==================================",
"=++++ooooOO==========================================OOoooo++++=================================",
"$++++$====================================================$++++$================================",
"=$$$$======================================================$$$$=================================",
"============================================++====================================++============",
"============================================+++==================================+++============",
"=============================================+++================================+++=============",
"====================+=======================oX+============================+=====+Xo============",
"===================+++======================oX============================+++=====Xo============",
"==================+++oo====================oX============================oo+++=====Xo===========",
"==================++=XXoo==================oX==========================ooXX=++=====Xo===========",
"=======================XXoo===============oX=========================ooXX===========Xo==========",
"=========================XX===============oX=========================XX=============Xo==========",
"================================================================================================",
"================================================================================================",
"===++oooooo==========================================oooooo++===================================",
"===++XXXXXX==========================================XXXXXX++===================================",
"===++======================================================++===================================",
"===++======================================================++===================================",
"====+======================================================+====================================",
"============================================++====================================++============",
"============================================+++==================================+++============",
"=============================================+++================================+++=============",
"====================+=======================Xo+============================+=====+Xo============",
"===================+++======================Xo============================+++=====Xo============",
"==================+++oo====================Xo============================oo+++=====Xo===========",
"==================++=XXoo================OOXo==========================ooXX=++=====XoOO=========",
"=======================XXOO=============O&&O=========================OOXX===========O&&O========",
"========================O&*O============O**O========================O*&O============O**O========",
"========================O&*O=============OO=========================O*&O=============OO=========",
"=========================OO==========================================OO=========================",
"===++ooooOO==========================================OOoooo++===================================",
"===++XXXO**O========================================O**OXXX++===================================",
"===++===O&&O========================================O&&O===++===================================",
"===++====OO==========================================OO====++===================================",
"====+======================================================+===================================="
};
