/* XPM */
static char *Basic_Grass_Biom_things[] = {
/* columns rows colors chars-per-pixel */
"144 80 53 1 ",
"  c #713970",
". c #54575E",
"X c #545959",
"o c #505E77",
"O c #754C60",
"+ c #566560",
"@ c #5F7A79",
"# c #6B7470",
"$ c #957A4B",
"% c #90625D",
"& c #AA7959",
"* c #8A4A70",
"= c #A35B70",
"- c #AF6776",
"; c #BD757E",
": c #67835C",
"> c #78A158",
", c #6E967C",
"< c #B09643",
"1 c #8DB15D",
"2 c #BFA954",
"3 c #B68962",
"4 c #C49A6C",
"5 c #D4C169",
"6 c #C0D470",
"7 c #EAE178",
"8 c #583F83",
"9 c #555793",
"0 c #694A87",
"q c #5F699C",
"w c #90689F",
"e c #A77BB3",
"r c #7180B1",
"t c #818B83",
"y c #82A884",
"u c #97BB8E",
"i c #9DA89A",
"p c #B0B9AB",
"a c #D99A9A",
"s c #DCB98A",
"d c #E8B5AC",
"f c #AED499",
"g c #C2E09A",
"h c #EEEE9B",
"j c #C1C8B9",
"k c #E8CFA6",
"l c #F4F4A0",
"z c #92B2D4",
"x c #F3D8C5",
"c c #CBE0DE",
"v c #F3F2C0",
"b c #F3F4E7",
"n c None",
/* pixels */
"nnnnn@@@@@@nnnnnnnnnnnnnnnnnnnnnnnnnnnnnnnnnnnnnnnnnnnnnnnnnnnnnnnnnnnnnnnnnnnnnnnnnnnnnnnnnnnnnnnnnnnnnnnnnnnnnnnnnnnnnnnnnnnnnnnnnnnnnnnnnnnnn",
"nnn@@uffffu@@nnnnnnnnnnnnnnn@@@@@@@@@nnnnnnnnnnnnnnnnnnnnnnn@@@@@@@@@nnnnnnnnnnnnnnnnnnnnnnnnnnnnnnnnnnnnnnnnnnnnnnnnnnnnnnnnnnnnnnnnnnnnnnnnnnn",
"nn@uffggffffu@nnnnnnnnnnnn@@uffffffuu@nnnnnnnnnnnnnnnnnnnn@@uffffffuu@nnnnnnnnnnnnnnnnnn****nnnnnnnnnnnnnnnnnnnnnnnnnnnnnnnnnnnnnnnnnnnnnnnnnnnn",
"nn@uffggfggfu@nnnnnnnnnn@@ufffgggfggfu@@nnnnnnnnnnnnnnnn@@ufffgggfggfu@@nnnnnnnnnnnnnnn*;;xx*nnnnnnnnnnnnnnnnnnnnnnnn000nnnnnnnnnnnnnnnnnn000nnn",
"n@ufgggffgggfu@nnnnnnnn@ufffffgggfggffuu@nnnnnnnnnnnnnn@ufffffgggfggffuu@nnnnnnnnnnnnn*;;xxx;*nnnnnnnnn****nnnnnnnnn0eee0nnnnnnnnnnnnnnnn0eee0nn",
"n@ufgggfffggfu@nnnnnnn@ufgggfgggffffffffu@nnnnnnnnnnnn@ufgggfgggffffffffu@nnnnnnnnnnnn*-;;;;;*nnnnnnnn*x;;;*nnnnnnn0wweee0nnnnnnnnnnnnnn0wweee0n",
"n@ffffffggfffu@nnnnnn@uufggggggfffgggfffuu@nnnnnnnnnn@uufggggggfffgggfffuu@nnnnnnnnnn*---;;;-d*nnnnnn*xxx;;x*nnnnnn0wwwww8nnnnnnnnnnnnnn0wwwww8n",
"n@uffffffffffu@nnnnnn@fffffggfffffgggggguu@nnnnnnnnnn@fffffggfffffg--g-=uu@nnnnnnnnn***dd---dd*nnnnnn*;xx;;x*nnnnnnn88888nnnnnnnnnn000nnn88888nn",
"n@uffffffffffu@nnnnn@ufffffffffffffffgggffu@nnnnnnnn@uffffffffffff-da-;;*fu@nnnnnnn*;;;*dd--**nnnnnn*-;;;;;;-*nnnnnnn*d*nnnnnnnnnn0eee0nnn*d*nnn",
"n@uuffuuffufuu@nnnnn@uffffffffffffffffffffu@nnnnnnnn@uffffffffffff=a;;;;*fu@nnnnnn*-;;;-****nnnnnnnn*--;;;---*nnnnnnn*x*nnnnnnnnn0wweee0nn*x*nnn",
"nn@uufffuuuuuu@nnnnn@uuufffuuffffffuuuffuuu@nnnnnnnn@uu--f-=uffffff=;-;*uuu@nnnnnn*-----*dd nnnnnnnnn*---dd-*nnnnnnnnnnnnnnnnnnnn0wwwww8nnnnnnnn",
"nn@uuuuuuffuuu@nnnnn@uuufffuuffffffuuuffuu@nnnnnnnnn@u-da-;;*ffffffu***fuu@nnnnnnnn***** xx nnnnnnnnnn******nnnnnnnnnnnnnnnnnnnnnn88888nnnnnnnnn",
"n@uuffuuuuuuu@nnnnnn@uuuuuuuuuuuffufffuuuu@nnnnnnnnn@u=a;;;;*uuuffufffuuuu@nnnnnnnnn d nnnnnnnnnnnnnnnn dd nnnnnnnnnnnnnnnnnnnnnnnn*d*nnnnnnnnnn",
"n@,uuuuuuuuuu,@nnnnnn@uuufffuuuuuuuuuuuuuuu@nnnnnnnnn@u=;-;*uuuuuuuuuuuuuuu@nnnnnnnn x nnnnnnnnnnnnnnnn xx nnnnnnnnnnnnnnnnnnnnnnnn*x*nnnnnnnnnn",
"n@,uuuuuuuuuu,@nnnnnn@uuuuuuuuuuuuuuuuuuuuu@nnnnnnnnn@uu***uuuuuuuuuuuuuuuu@nnnnnnnnnnnnnnnnnnnnnnnnnnnnnnnnnnnnnnnnnnnnnnnnnnnnnnnnnnnnnnnnnnnn",
"n@,,,uu,,uu,,,@nnnnn@,uuuuuuuuuuuuuuuuuuuu,@nnnnnnnn@,uuuuuuuuuuuuuuuuuuuu,@nnnnnnnnnnnnnnnnnnnnnnnnnnnnnnnnnnnnnnnnnnnnnnnnnnnnnnnnnnnnnnnnnnnn",
"n@,uu,u,,,,uu,@nnnnn@,,,u,,uu,,,uuuuu,,,,,,@nnnnnnnn@,,,u,,uu,,,uuuuu,,,,,,@nnnnnnnnnnnnnnnnnnnnnnnnnnnnnnnnnnnnnnnnnnnnnnnnnnnnnnnnnnnnnnnnnnnn",
"n@,,,,,,uu,,,,@nnnnn@,,,u,,uu,,,uuuuu,,,,,,@nnnnnnnn@,,,u,,uu,,,--u-=,,,,,,@nnnnnnnnnnnnnnnnnnnnnnnnnnnnnnnnnnnnnnnnnnnnnnnnnnnnnnnnnnnnnnnnnnnn",
"nn@,,,,,,,,,,@nnnnnn@,,,,,,,,uuuuu,,,uuu,,@nnnnnnnnn@,,,,,,,,uu-da-;;*uu,,@nnnnnnnnnnnnnnnnnnnnnn@@@nn@@@nnnnnnnnnnnn#tnnnnnnnnnnnnnnn###nnnnnnn",
"nn@,,,,,,,,,,@nnnnnnn@,,uuu,,,,,,,,,,,,,,,@nnnnnnnnnn@,,uuu,,,,=a;;;;*,,,,@nnnnnnnnnnnnnnnnnnnnnn@gg@@gg@nnnnnnnnnnn#pptnnnnnnnnnnnnn#jjj##nnnnn",
"nnn@@@@@@@@@@nnnnnnnn@,,,,,,,,,,,,,,,,,,,,@nnnnnnnnnn@,,,,,,,,,,=;-;*,,,,,@nnnnnnnnnnnnnnnnnnnnnn@guuuug@nnnnnnnnnnnXipp#nnnnnnnnnnn#jjjjjj##nnn",
"nnnnn%&&&&%nnnnnnnnnnn@,,,,,,,,,,,,,,,,,,@nnnnnnnnnnnn@,,,,,,,,,,***,,,,,@nnnnnnnnnnnnnnnnnnnnnnnn@,uu,@nnnnnnnnnnnnXiiipXnnnnnnnnnn#tjjjiiij#nn",
"nnnnn%4&4&%nnnnnnnnnnnn@@,,,,,,,,,,,,,@@@nnnnnnnnnnnnnn@@,,,,,,,,,,,,,@@@nnnnnnnnnnnnnnnnnnnnnnnnnnn,,nnnnnnnnnnnnnX#iii#tXnnnnnnnn#ittiiiijjjXn",
"nnnnn%4444%nnnnnnnnnnnnnn@@@@@@@@@@@@@nnnnnnnnnnnnnnnnnnn@@@@@@@@@@@@@nnnnnnnnnnnnnn@@@nn@@@nnnnnnnnnnnnnnnnnnnnnnnXt###ttXnnnnnnn#iiitiijjjjjXn",
"nnnnn%4444%nnnnnnnnnnnnnnnnn%&&&&&&%nnnnnnnnnnnnnnnnnnnnnnnn%&&&&&&%nnnnnnnnnnnnnnnn@gg@@gg@nnnnnnnnnnnnnnnnnnnnnnnntt##tnnnnnnnnXiiiiijjjjjjtXn",
"nnnn%444444%nnnnnnnnnnnnnnnn%3&&&&3%nnnnnnnnnnnnnnnnnnnnnnnn%3&&&&3%nnnnnnnnnnnnnnnn@guuuug@nnnnnnnnnn@@@nn@@@nnnnnnnnnnnnnnnnnnnXtii#jjjjjjttXn",
"nnnnnn4444nnnnnnnnnnnnnnnnnn%333333%nnnnnnnnnnnnnnnnnnnnnnnn%333333%nnnnnnnnnnnnnnnnn@,uu,@nnnnnnnnnnn@gg@@gg@nnnnnnnnnnnnnnnnnnnntt#tjjjjttttXn",
"nnnnnnn4nnnnnnnnnnnnnnnnnnnn%343444%nnnnnnnnnnnnnnnnnnnnnnnn%343444%nnnnnnnnnnnnnnnnnnn,,nnnnnnnnnnnnn@guuuug@nnnnnnnnnnnnnnnnnnnnnn#tttttttttnn",
"nnnnnnnnnnnnnnnnnnnnnnnnnnn%44444444%nnnnnnnnnnnnnnnnnnnnnn%44444444%nnnnnnnnnnnnnnnnnnnnnnnnnnnnnnnnnn@,uu,@nnnnnnnnnnnnnnnnnnnnnnnntttttttnnnn",
"nnnnnnnnnnnnnnnnnnnnnnnnnnnn44444444nnnnnnnnnnnnnnnnnnnnnnnn44444444nnnnnnnnnnnnnnnnnnnnnnnnnnnnnnnnnnnnn,,nnnnnnnnnnnnnnnnnnnnnnnnnnnnnnnnnnnnn",
"nnnnnnnnnnnnnnnnnnnnnnnnnnnnnnn44nnnnnnnnnnnnnnnnnnnnnnnnnnnnnn44nnnnnnnnnnnnnnnnnnnnnnnnnnnnnnnnnnnnnnnnnnnnnnnnnnnnnnnnnnnnnnnnnnnnnnnnnnnnnnn",
"nnnnnnnnnnnnnnnnnnnnnnnnnnnnnnnnnnnnnnnnnnnnnnnnnnnnnnnnnnnnnnnnnnnnnnnnnnnnnnnnnnnnnnnnnnnnnnnnnnnnnnnnnnnnnnnnnnnnnnnnnnnnnnnnnnnnnnnnnnnnnnnn",
"nnnnnnnnnnnnnnnnnnnnnnnnnnnnnnnnnnnnnnnnnnnnnnnnnnnnnnnnnnnnnnnnnnnnnnnnnnnnnnnnnnnnnnnnnnnnnnnnnnnnnnnnnnnnnnnnnnnnnnnnnnnnnnnnnnnnnnnnnnnnnnnn",
"nnnnnnnnnnnnnnnnnnnnnnnnnnnnnnnnnnnnnnnnnnbbbbnnnnnnnnnnnnnnnnnnnnnnnnnnnnnnnnnnnnnnnnnnnnnnnnnnnnnnnnnnnnnnnnnnnnnnnnnnnnnnnnnnnnnnnnnnnnnnnnnn",
"nnnnnnnnnnnnnnnnnnnnnnnnnnnnnnnnnnnnnnbbbb@@@bnnnnnnnnnnnnnnnnnnnnnnnnnnnnnnnnnnnnnnnnnnnnnnnnnnnnnnnnnnnnnnnnnnnnnnnnnnnnnnnnnnnnnnnn<<<<nnnnnn",
"nnnnnnnnnnnnnnnnnnnnnnnnnnnnnnnnnnnnnnbOb@yy@bnnnnnnnnnnnnnnnnnnnnnnnnnnnnnnnnnnnnnnnnn%%nnnnnnnnnnnnnnnnnnnnnnnnnnnnnnnnnnnnnnnnnnn<<h777$$nnnn",
"nnnnnnnnnnnnnnnnnnnnnnnn@@@nnnnnnnnnbbbO@,,y@bnnnnnnnnn%%nnnnnnnnnnnnn%%%%nnnnnnnnnnnn%4%nnnnnnnnnnnnnnnnnnnnnnnnnnnnnnnnnnnnnnnnnn<75777755$nnn",
"nnnnnnnnnnnnnnnnnnnnnnn@yy@nnnnnnnnb===O@@@@bnnnnnnnnn%ss%nnnnnnnnnnn%ssss%nnnnnnn%%%%%4%%%%%%nnnnnnnnnnnnnnnnnnnnnnn<<<$$nnnnnnnnn<55&%%%55$nnn",
"nnnnnnnnnnnnnnnnnnnnnn@,,y@nnnnnnnb=;;;==--=bnnnnnnnn%ssss%nnnnnnnnn%ssssss%nnnnn%sk44%4%44444%nnnnnnnnnnnnnnnnnnnnn<vv777$nnnnnnn<h7&&&%%%77$nn",
"nnnnn--n==nnnnnnnnnnn--@==nnnnnnnb=;a;;;----=bnnnnnnn%kssk%nnnnnnnnn%kssssk%nnnn%sssk4444444444%nnnnnn2<<nnnnnnnnnnn$7<<<7$nnnnnnn<77&&&&%%77$nn",
"nnnn-da-;;*nnnnnnnnn-da-;;*nnnnnnb=;;;a;----*bnnnnnnn%3kk3%nnnnnnnnn%3kkkk3%nnnn%sssk3444444443%nnnnn2l77<nnnnnnnn::$77777$::nnnnn<77&&&&&%77$nn",
"nnnn=a;;;;*nnnnnnnnn=a;;;;*nnnnnnb=;;;;;----*bnnnnnnn%3333%nnnnnnnnn%333333%nnnn%sssk3333344333%nnn::$777$::nnnnnn:66$555$66:nnnnn<77&&&&&&75$nn",
"nnnnn=;-;*nnnnnnnnnnn=;-;*nnnnnnnb*;;;;-----*bnnnnnnn%4343%nnnnnnnnn%343444%nnnn%sssk3444444433%nnn:11$$$11:nnnnnn:6111>1116:nnnnnn$55&&&&55$nnn",
"nnnnnn***nnnnnnnnnnnnn***nnnnnnnnnb*-------*bnnnnnnn%444444%nnnnnnn%44444444%nnnn%sk3333333333%nnnnn:::n:::nnnnnnnn::11:11::nnnnnnn$55777755$nnn",
"nnnnnnnnnnnnnnnnnnnnnnnnnnnnnnnnnnnb*--*--*bnnnnnnnnnn4444nnnnnnnnnn44444444nnnnnnnnnnnnnnnnnnnnnnnnnnnnnnnnnnnnnnnnn++n++nnnnnnnnnn$$7775$$nnnn",
"nnnnnnnnnnnnnnnnnnnnnnnnnnnnnnnnnnnnb**b**bnnnnnnnnnnnn4nnnnnnnnnnnnnnn44nnnnnnnnnnnnnnnnnnnnnnnnnnnnnnnnnnnnnnnnnnnnnnnnnnnnnnnnnnnnn$$$$nnnnnn",
"nnnnnnnnnnnnnnnnnnnnnnnnnnnnnnnnnnnnnbbnbbnnnnnnnnnnnnnnnnnnnnnnnnnnnnnnnnnnnnnnnnnnnnnnnnnnnnnnnnnnnnnnnnnnnnnnnnnnnnnnnnnnnnnnnn>>>nn++nn>>>nn",
"nnnnnnnnnnnnnnnnnnnnnnnnnnnnnnnnnnnnnnnnnnnnnnnnnnnnnnnnnnnnnnnnnnnnnnnnnnnnnnnnnnnnnnnnnnnnnnnnnnnnnnnnnnnnnnnnnnnnnnnnnnnnnnnnnn>66>n::n>66>nn",
"nnnnn@@@@@@nnnnnnnnnn@@@@@@nnnnnnnnnnnnnnnnnnnnnnnnnnnnnnnnnnnnnnnnnnnnnnnnnnnnnnnnnnnnnnnnnnnnnnnnnnnnnnnnnnnnnnnnnnnnnnnnnnnnnnn:611>::>116:nn",
"nnn@@ufggfu@@nnnnnn@@ufggfu@@nnnnnnnnnnnnnnnnnnnnnnnnnnnnnnnnnnnnnnnnnnnnnnnbbbbnnnnnnnnnnnnnnnnnnnnnnnnnnnnnnnnnnnnnnnnnnnnnnnnnnn::++::++::nnn",
"nn@ufffggfffu@nnnn@ufffggfffu@nnnnnnnnnnnnnnnnnnnnnnnnnnnnnnnnnnnnnnnnnnnbbb@@@bnnnnnnqqq99nnnnnnnnnnnnnnnnnnnnnnnnnnnnnnnnnnnnnnnnnnnn::nnnnnnn",
"n@ufggffgggffu@nn@ufggffgggffu@nnnnnnnnnnnnnnnnnnnnnnnnnnnnnnnnnbbbbnbbnb***y,@bnnnnnqcczzz9nnnnnnnnnnnnnnnnnnnnnnnnnnnnnnnnnnnnnnnnnnn::nnnnnnn",
"n@ffggffg===*u@nn@ffggffgggffu@nnnnnnnnnnnnnnnnnnnnnnnnnnnnnnnnnb@@@b**b*;a;*,obnnnnnqcrqqz9nnnnnnnnnnnnnnnnnnnnnnnnn;;;;-nnnnnnn>>>nnn::nnn>>>n",
"@ufffffff=a;*fu@@uffffffffffffu@nnnnnnnnnnnnnnnnnnnnnnnnnnnnnnnnb@y,*;;*-;;;;*bnnnnnnqzrrqz9nnnnnnnnnnnnnnnnnnnnnnnn;xxddd-nnnnnn>66>nn::nn>66>n",
"@uu===*ff*;;*uu@@uuffuffffuufuu@nnnnnnnnnnnnnnnnnnnnn@@nn@@nnnnnb@,*;;a;*-;a;*bbnnnnn9zrrqz9nnnnnnnnnna;;nnnnnnnnnnn;d;;;d-nnnnnn>611>n::n>116:n",
"@uu=a;*ufu**uu@n@uuuuuuufuffuu@nnnnnnnnnnnnnnnnnnnnnn@u@@u@nnnnnnb*;;;;;;*---*@bnnnnn9zzzzz9nnnnnnnnnaxdd;nnnnnnnn::-ddddd-::nnnnn:111::::111:nn",
"n@u*;;*uuuuuuuu@n@uuffuuuuuuuuu@nnnnnn===*nnnnnnnnnnnn===*nnnnnnnb*-;a;;;*--*,@bnnn:::99999:::nnnnn::;ddd;::nnnnnn:66-aaa-66:nnnnnn::++::++::nnn",
"@,uu**uuuuuuuu,@@,uuuuuuuuuuuu,@nnnnnn=a;*nnnnnnnnnnnn=a;*nnnnnnnb*--;;;a****,obnnn:66::>::66:nnnnn:11;;;11:nnnnnn:6111>1116:nnnnnnnnnn::nnnnnnn",
"@,,u,u,===*,,,,@@,,u,u,,uuu,,,,@nnnnnn*;;*nnnnnnnnnnnn*;;*nnnnnnnnb**-;;;*==*obnnnn:6111>1116:nnnnnn:::n:::nnnnnnnn::11:11::nnnnnnnnnnn::nnnnnnn",
"@,,,,,u=a;*uu,,@@,,,,,uuu,,uu,,@nnnnnnn**nnnnnnnnnnnnnn**nnnnnnnnnnbb*****==*bnnnnnn::11:11::nnnnnnnnnnnnnnnnnnnnnnnn++n++nnnnnnnnnnnnn::nnnnnnn",
"n@,uu,,*;;*,,,@nn@,uu,,,,,,,,,@nnnnnnnnnnnnnnnnnnnnnnnnnnnnnnnnnnnnnnbb*===*bnnnnnnnnn++n++nnnnnnnnnnnnnnnnnnnnnnnnnnnnnnnnnnnnnnnnnnnn::nnnnnnn",
"nn,,,,,,**,,,,nnnn,,,,,,,,,,,,nnnnnnnnnnnnnnnnnnnnnnnnnnnnnnnnnnnnnnnnb****bnnnnnnnnnnnnnnnnnnnnnnnnnnnnnnnnnnnnnnnnnnnnnnnnnnnnnnnnnnn::nnnnnnn",
"nnnn,,,,,,,,nnnnnnnn,,,,,,,,nnnnnnnnnnnnnnnnnnnnnnnnnnnnnnnnnnnnnnnnnnbbbbbnnnnnnnnnnnnnnnnnnnnnnnnnnnnnnnnnnnnnnnnnnnnnnnnnnnnnnnnnnnnnnnnnnnnn",
"nnnnnnnnnnnnnnnnnnnnnnnnnnnnnnnnnnnnnnnnnnnnnnnnnnnnnnnnnnnnnnnnnnnnnnnnnnnnnnnnnnnnnnnnnnnnnnnnnnnnnnnnnnnnnnnnnnnnnnnnnnnnnnnnnnnnnnnnnnnnnnnn",
"nnnnnnnnnnnnnnnnnnnnnnnnnnnnnnnnnnnnnnnnnnnn@@@nn@@@@@nnnnnnnnnnnnnnnnnnnnnnnnnnnnnnnnnnnnnnnnnnnnnnnnnnnnnnnnnnnnnnnnnnnnnnnnnnnnnnn:::nnnnnnnn",
"nnnnnnnnnnnnnnnnnnnnnnnnnnnnnnnnnnnnnnnnn@@@uuu@@uu,,,@@@@nnnnnnnnnnnnnnnnnnnnnnnnnnnnnnnnnnnnnnnnnnnnnnnnnnnnnnnnnnnnnnnnnnnnnnnnn::11:nnnnnnnn",
"nnnnnnnnnnnnnnnnnnnnnnnnnnnnnnnnnnnnnnnn@uuuffuuuuuu,,,,,,@@nnnnnnnnnnnnnnnnnnnnnnnnnnnnnnnnnnnnnnnnnnnnnnnnnnnnnnnnnnnnnnnnnnnnnn:1111:nnnnnnnn",
"nnnnnnnnnnnnnnnnnnnnnnnnnnnnnnnnnnnnnn@@ufffffuuuuuu,,,,,,,@nnnnnnnnnnnnnnnnnnnnnnnnnnn###nnnnnnnnnnnnnnnnnnnnnnnnnnnnnnnnnnnnnnn:11166::::::nnn",
"nnnnnn@@@@@@@@@n@@@@@@nnnnnnnnnnnnnnn@ufffggffuufuuu,,uu,,,,@nnnn%nnnnnnnnnnnnnnnnnnn##jjj#nnnnnnnnnnn#tnnnnnnnnnnn:::::::nnnnnnb:1166666611:bnn",
"nnnn@@uuuuuuuuu@,,,,,,@@nnnnnnnnnnnn@uffggggffuufuuuuu,,,,,,@%%%%44nnnnnnnnnnnnnnnn##jjjjjj#nnnnnnnnn#pptnnnnnnnnn:1111111:nnnnnb:1166666611:bnn",
"nnn@ffgggffffuuuuu,,u,,,@nnnnnnnnnnn@fffggfffffffuuuuuuu,,,,@&33444nnnnnnnnnnnnnnn#jiiijjjt#nnnnnnnnnXipp#nnnnnnn:111666111:nnnnb:1116666111:bnn",
"nn@ufggggfffuufuuuuu,,,,@nnnn%nnnnnn@fffffffffffuuuuuuuu,,,,@&&3444nnnnnnnnnnnnnnXjjjiiiitti#nnnnnnnnXiiipXnnnnnb:116666611:bnnnnb:11111111:bnnn",
"nn@ffggffgfffufuuuuu,u,,@%%%%4nnnnnn@ffggfffffuuufuuuu,,,,,,@&&34444nnnnnnnnnnnnnXjjjjjiitiii#nnnnnnX#iii#tXnnnnb:::::66611:bnnnnnb::1111::bnnnn",
"nn@ffffffgfffuuuuu,,,u,,@&&4444nnnnn@ufggffffffuufuu,,,u,,,,@&&33444nnnnnnnnnnnnnXtjjjjjjiiiiiXnnnnbXt###ttXbnnnnbbbb:66111:bnnnnnnbb::::bbnnnnn",
"nn@fgggggfffufuuuuu,,,,,@&44444nnnnnn@fffffffffuufuu,,,u,,,,@&&3444nnnnnnnnnnnnnnXttjjjjjj#iitXnnnnnbtt##tbbnnnnnnnnn:111::bnnnnnnnnnbbbbnn:::nn",
"nn@uffgggfffffufuuu,,,,,@&&44444nnnnn@uffffffffuuuuuuu,u,,,@@&33344nnnnnnnnnnnnnnXttttjjjjt#tt.bnnnnnbbbbbnnnnnnnnnnn::::bbnnnnnnnnnnnnnnn:661:n",
"nnn@ffgggffffuufuu,,,,,,@&44444nnnnnnn@@uffffuuuuuuu,,,,,,@@%%%%%%%nnnnnnnnnnnnnb.ttttttttt#bbbnnnnnnnnnnnnnnnnnnnnnnbbbbnnnnnnnnnnnnnnnnb:111:b",
"nnnn@@uuufuuu@@u,,,,,,@@%%%%%%%nnnnnnnnn@@uuuuuuu@@,,,,@@@nnnnnnnnnnnnnnnnnnnnnnnbbbtttttttbnnnnnnnnnnnnnnnnnnnnnnnnnnnnnnnnnnnnnnnnnnnnnnb:::bn",
"nnnnnn@@@@@@@nn@@@@@@@nnnnnnnnnnnnnnnnnnnn@@@@@@@nn@@@@nnnnnnnnnnnnnnnnnnnnnnnnnnnnnbbbbbbbnnnnnnnnnnnnnnnnnnnnnnnnnnnnnnnnnnnnnnnnnnnnnnnnbbbnn",
"nnnnnnnnnnnnnnnnnnnnnnnnnnnnnnnnnnnnnnnnnnnnnnnnnnnnnnnnnnnnnnnnnnnnnnnnnnnnnnnnnnnnnnnnnnnnnnnnnnnnnnnnnnnnnnnnnnnnnnnnnnnnnnnnnnnnnnnnnnnnnnnn"
};
