/* XPM */
static char *Basic_Furniture[] = {
/* columns rows colors chars-per-pixel */
"144 96 42 1 ",
"  c #754C60",
". c #566560",
"X c #957A4B",
"o c #90625D",
"O c #AA7959",
"+ c #A35B70",
"@ c #AF6776",
"# c #BD757E",
"$ c #67835C",
"% c #78A158",
"& c #7A9B61",
"* c #B09643",
"= c #8DB15D",
"- c #BFA954",
"; c #B68962",
": c #C49A6C",
"> c #A4C263",
", c #C0D470",
"< c #D2E077",
"1 c #EAE178",
"2 c #577297",
"3 c #658CA1",
"4 c #7180B1",
"5 c #CC888D",
"6 c #D99A9A",
"7 c #DCB98A",
"8 c #E8B5AC",
"9 c #B1E0BE",
"0 c #DED9AB",
"q c #E8CFA6",
"w c #F4F4A0",
"e c #F0EFB9",
"r c #8599C7",
"t c #8CBFC2",
"y c #D8B1E0",
"u c #9BD4C3",
"i c #D5DAC1",
"p c #D6F1CD",
"a c #F3E5C2",
"s c #F3F2C0",
"d c #F3F4E7",
"f c None",
/* pixels */
"ffffffffffffffffffffffffffffffffffffffffffffffffffffff***XXfffffffffffffffffffffffffffffffffffffffffffffffffffffffffffffffffffffffffffffffffffff",
"fffffffffffffffffffffffffffffffffffffffffffffffffffff*ss111Xfffffffffffffffffffffffffff322ffffffffffffffffffffffffffffffffffffffffffffffffffffff",
"fffffffffffffffffffffffffffffffffffffffffffffffffffff*177:1Xffffffffffffffffffffffffff39uu2fffffffffffffffffffffffffffffffffffffffffffffffffffff",
"fffffffffffffffffffffffffffffffffffffffffffffffffffffX17:;1Xffffffffffffffffffffffffff2uwu2fffffffffffffffffffffffffffffffffffffffffffffffffffff",
"fffffffffffffffffffffffffffffffffffffffffffffffffffffX1:;;1Xffffffff$$$ff$$$ffffffff$$2uuu2fffffffffffffffffffffffffffffffffffffffffffffffffffff",
"fffffffffffffffffffffffffffffffffff            ffffffX11111Xffffffff$,,$$,,$ffffffff$,,222ffffffffffffffffffffffffffffffffffffffffffffffffffffff",
"f               fff           fffff 44444ii444 ffff$$$XXXXX$$$ffffff$,====,$ffffffff$,==$fffffffffffffffffffffffffffffffffffffffffffffffffffffff",
"f tuuuuuuuuuuut fff puuuupppp fffff 4rrirriir4 ffff$,,$$%$$,,$fffffff$$==$$ffffffffff$$=$offffffffffffffffffffffffffffffffffffffffffffffffffffff",
"f u9y999y999y9u fff pd99ddddp fffff 4irrrriir4 ffff$,===%===,$fffffffo:..:offffffffffo:..:offfffffffffffffffffffffffffffffffffffffffffffffffffff",
"f uysy9ysy9ysyu fff u9999999u fffff 4rrrriirr4 fffff$$==$==$$ffffffffo::::offffffffffo::::offfffffffffffffffffffffffffffffffffffffffffffffffffff",
"f u9y999y999y9u fff u,99,9,9> fffff 4rrrrrrrr4 ffffffo$$.$$offffffffffoOOoffffffffffffoOOoffffffffffffffffffffffffffffffffffffffffffffffffffffff",
"f tuuuuuuuuuuut fff >>>>>>>>> fffff %%%%%%%%%% ffffffo:::::offffffffffo::offffffffffffo::offffffffffffffffffffffffffffffffffffffffffffffffffffff",
"f               fff           fffff            fffffffoOOOoffffffffffffooffffffffffffffoofffffffffffffffffffffffffffffffffffffffffffffffffffffff",
"ffffffffffffffffffffffffffffffffffffffffffffffffffffffo:::offfffffffffffffffffffffffffffffffffffffffffffffffffffffffffffffffffffffffffffffffffff",
"fffffffffffffffffffffffffffffffffffffffffffffffffffffffoooffffffffffffffffffffffffffffffffffffffffffffffffffffffffffffffffffffffffffffffffffffff",
"ffffffffffffffffffffffffffffffffffffffffffffffffffffffffffffffffffffffffffffffffffffffffffffffffffffffffffffffffffffffffffffffffffffffffffffffff",
"ffffffffffffffffffffffffffffffffffffffffffffffffffffff&&&&ffffffffffff3333ffffffffffff++++ffffffffffffffffffffffffffffffffffffffffffffffffffffff",
"fffffffffffffffffffffffffffffffffffffffffffffffffffff&,,,,&ffffffffff3uuuu3ffffffffff+6666+fffffffffffffffffffffffffffffffffffffffffffffffffffff",
"fffffffffffffffffffffffffffffffffffffffffffffffffffff&>,,>&ffffffffff3tuut3ffffffffff+#66#+fffffffffffffffffffffffffffffffffffffffffffffffffffff",
"ffffffffffffffffffffffffffffffffffffffffffffffffffff&>>>>>>&ffffffff3tttttt3ffffffff+######+ffffffffffffffffffffffffffffffffffffffffffffffffffff",
"ffffffffffffffffffffffffffffffffffffffffffffffffffff&>>>>>>&ffffffff3tttttt3ffffffff+######+ffffffffffffffffffffffffffffffffffffffffffffffffffff",
"fffffffffffffffffffffffffffffffffffffffffffffffffff&,>>>>>>,&ffffff3uttttttu3ffffff+6######6+fffffffffffffffffffffffffffffffffffffffffffffffffff",
"ffffffffffffffffffffffffffffffffffffffffffffffffffff&&,,,,&&ffffffff33uuuu33ffffffff++6666++ffffffffffffffffffffffffffffffffffffffffffffffffffff",
"ffffffffffffffffffffffffffffffffffffffffffffffffffffff&&&&ffffffffffff3333ffffffffffff++++ffffffffffffffffffffffffffffffffffffffffffffffffffffff",
"fffffffffffffffffffffffffffffffffffffffffffffffffffff-ss11-ffffffffff-ss11-ffffffffff-ss11-fffffffffffffffffffffffffffffffffffffffffffffffffffff",
"fffffffffffffffffffffffffffffffffffffffffffffffffffff-1111-ffffffffff-1111-ffffffffff-1111-fffffffffffffffffffffffffffffffffffffffffffffffffffff",
"fffooffffffooffffffooffffffooffffffooffffffoofffffffff----ffffffffffff----ffffffffffff----ffffffffffffffffffffffffffffffffffffffffffffffffffffff",
"ffo::oooooo::offffo::oooooo::offffo::oooooo::offffffffffffffffffffffffffffffffffffffffffffffffffffffffffffffffffffffffffffffffffffffffffffffffff",
"fo:OO::::::OO:offo:OO::::::OO:offo:OO::::::OO:offfffffffffffffffffffffffffffffffffffffffffffffffffffffffffffffffffffffffffffffffffffffffffffffff",
"foOOOOOOOOOOOOoffoOOOOOOOOOOOOoffoOOOOOOOOOOOOofffffffffffffffffffffffffffffffffffffffffffffffffffffffffffffffffffffffffffffffffffffffffffffffff",
"foOOOOOOOOOOOOoffoOOOOOOOOOOOOoffoOOOOOOOOOOOOofffffffffffffffffffffffffffffffffffffffffffffffffffffffffffffffffffffffffffffffffffffffffffffffff",
"foOO00000000OOoffoOO00000000OOoffoOO00000000OOofffffffffffffffffffffffffffffffffffffffffffffffffffffffffffffffffffffffffffffffffffffffffffffffff",
"foO0eeeeeeee0OoffoO0eeeeeeee0OoffoO0eeeeeeee0Oofffooooooooooooffffffffffffffffffffffffffffffffffffffffffffffffffffffffffffffffffffffffffffffffff",
"fo:0eeeeeeee0:offo:0eeeeeeee0:offo:0eeeeeeee0:offo::::::::::::offfffooffffffffffffffffffffoofffffffffoooooofffffffffffffffffffffffffffffffffffff",
"fo:>,,,,,,,,>:offo:tuuuuuuuut:offo:#55555555#:offo::::::::::::offffo::offffffffffffffffffo::offfffffo::::::offffffffffffffffffffffffffffffffffff",
"fo>,<<<<<<<<,>offotu99999999utoffo#5666666665#offo777777777777offffo::offffffffffffffffffo::offffffo:777777:offfffffffffffffffffffffffffffffffff",
"fo>,<<<<<<<<,>offotu99999999utoffo#5666666665#offoOOOOOOOOOOOOoffffo::offffffffffffffffffo::offffffo7OOOOOO7offffffffoooooofffffffffffffffffffff",
"fo>,<<<<<<<<,>offotu99999999utoffo#5666666665#offoOooooooooooOoffffo::ooooooffffffffoooooo::offffffoOOOOOOOOofffffffo::::::offffffffffffffffffff",
"fo>,<<<<<<<<,>offotu99999999utoffo#5666666665#offoOoOOOooOOOoOoffffo77o:::::offffffo:::::o77offffffoOOOOOOOOoffffffo:777777:offfffffffffffffffff",
"fo>,<<<<<<<<,>offotu99999999utoffo#5666666665#offoOoOOOOOOOOoOoffffoOOo:::::offffffo:::::oOOoffffffo::::::::offffffo7OOOOOO7offfffffffffffffffff",
"fo>,<<<<<<<<,>offotu99999999utoffo#5666666665#offoOOooooooooOOoffffoOOo:::::offffffo:::::oOOoffffffo::::::::offffffoOOOOOOOOofffffffffffffffffff",
"fo>,<<<<<<<<,>offotu99999999utoffo#5666666665#offoOOOOOOOOOOOOoffffoOOo:::::offffffo:::::oOOoffffffo::::::::offffffoOOOOOOOOofffffffffffffffffff",
"fo>::<<<<<<::>offot::999999::toffo#::666666::#offoOooooooooooOoffffoOOo77777offffffo77777oOOoffffffo::::::::offffffoOOOOOOOOofffffffffffffffffff",
"fo:OO::::::OO:offo:OO::::::OO:offo:OO::::::OO:offoOoOOOooOOOoOoffffoOOOOOOOOoffffffoOOOOOOOOoffffffo77777777offffffoOOOOOOOOofffffffffffffffffff",
"foOOOOOOOOOOOOoffoOOOOOOOOOOOOoffoOOOOOOOOOOOOoffoOoOOOOOOOOoOoffffoOOOooOOOoffffffoOOOooOOOoffffffoOOOooOOOoffffffoOOOooOOOofffffffffffffffffff",
"foOOOOOOOOOOOOoffoOOOOOOOOOOOOoffoOOOOOOOOOOOOoffoOOooooooooOOofffffoooffoooffffffffoooffoooffffffffoooffoooffffffffoooffoooffffffffffffffffffff",
"foOOooooooooOOoffoOOooooooooOOoffoOOooooooooOOoffoOOOOOOOOOOOOofffffffffffffffffffffffffffffffffffffffffffffffffffffffffffffffffffffffffffffffff",
"ffooffffffffooffffooffffffffooffffooffffffffooffffooooooooooooffffffffffffffffffffffffffffffffffffffffffffffffffffffffffffffffffffffffffffffffff",
"ffffffffffffffffffffffffffffffffffffffffffffffffffffffffffffffffffffffffffffffffffooofffffooofffffffffffffffffffffffffffffffffffffffffffffffffff",
"ffffffffffffffffffffffffffffffffffffffffffffffffffoooooooooooofffffffffffffffffffo:::offfo:::offffffffffffffffffffffffffffffffffffffffffffffffff",
"fffffffffffffffffffffffffffffffffffffffffffffffffo::::::::::::offffffffffffffffffo;;:ooooo:;;offfffffoooooooffffffffffffffffffffffffffffffffffff",
"fffffffffffffffffffffffffffffffffffffffffffffffffo::::::::::::offfffoooooooofffffo;;:::::::;;offffffo:::::::offfffffffffffffffffffffffffffffffff",
"fffffffffffffffffffffffffffffffffffffffffffffffffo::::::::::::offffo::::::::offffo:::ooooo:::offfffo::ooooo::offffffffooooofffffffffffffffffffff",
"fffffffffffffffffffffffffffffffffffffffffffffffffo::::::::::::offffo::::::::offffo::oaaqaao::offffo::oaaqaao::offffffoaaqaaoffffffffffffffffffff",
"fffffffffffffffffffffffffffffffffffffffffffffffffo::::::::::::offffo::::::::offffo:oaaaaaaao:offffo:oaaaaaaao:offfffoaaaaaaaofffffffffffffffffff",
"fffffffffffffffffffffffffffffffffffffffffffffffffo::::::::::::offffo::::::::offffo:oaaaoaaao:offffo:oaaaoaaao:offfffoaaaoaaaofffffffffffffffffff",
"fffffffffffffffffffffffffffffffffffffffffffffffffo::::::::::::offffo::::::::offffo:oqaaooaqo:offffo:oqaaooaqo:offfffoqaaooaqofffffffffffffffffff",
"fffffffffffffffffffffffffffffffffffffffffffffffffo::::::::::::offffo77777777offffo:oaaaaaaao:offffo:oaaaaaaao:offfffoaaaaaaaofffffffffffffffffff",
"fffooffffffooffffffooffffffooffffffooffffffooffffo::::::::::::offffoOOOooOOOoffffo:oaaaaaaao:offffo:oaaaaaaao:offfffoaaaaaaaofffffffffffffffffff",
"ffo::oooooo::offffo::oooooo::offffo::oooooo::offfo777777777777offfffoooffooofffffo::oaaqaao::offffo::oaaqaao::offffffoaaqaaoffffffffffffffffffff",
"fo:OO::::::OO:offo:OO::::::OO:offo:OO::::::OO:offoOOOOOOOOOOOOofffffffffffffffffffo::ooooo::offffffo::ooooo::offffffffooooofffffffffffffffffffff",
"foOOOOOOOOOOOOoffoOOOOOOOOOOOOoffoOOOOOOOOOOOOoffoOooooooooooOoffffffffffffffffffffo:::::::offffffffo:::::::offfffffffffffffffffffffffffffffffff",
"foOOOOOOOOOOOOoffoOOOOOOOOOOOOoffoOOOOOOOOOOOOoffooffffffffffoofffffffffffffffffffffoooooooffffffffffoooooooffffffffffffffffffffffffffffffffffff",
"foO>,,,,,,,,>OoffoOtuuuuuuuutOoffoO#55555555#Oofffffffffffffffffffffffffffffffffffffffffffffffffffffffffffffffffffffffffffffffffffffffffffffffff",
"fo>,<<<<<<<<,>offotu99999999utoffo#5666666665#offfffffffffffffffffffffffffffffffffffffffffffffffffffffffffffffffffffffffffffffffffffffffffffffff",
"fo>,<<<<<<<<,>offotu99999999utoffo#5666666665#offfffffffffffffffffffffffffffffffffffffffffffffffffffffffffffffffffffffffffffffffffffffffffffffff",
"fo>,<<<<<<<<,>offotu99999999utoffo#5666666665#offfffffffffffffffffffffffffffffffffffffffffffffffffffffffffffffffffffffffffffffffffffffffffffffff",
"fo>,<<<<<<<<,>offotu99999999utoffo#5666666665#offfffffffffffffffffffffffffffffffffffffffffffffffffffffffffffffffffffffffffffffffffffffffffffffff",
"fo>,<<<<<<<<,>offotu99999999utoffo#5666666665#offfffffffffffffffffffffffffffffffffffffffffffffffffffffffffffffffffffffffffffffffffffffffffffffff",
"fo>,<<<<<<<<,>offotu99999999utoffo#5666666665#offfffffffffffffffffffffffffffffffffffffffffffffffffffffffffffffffffffffffffffffffffffffffffffffff",
"fo>,<<<<<<<<,>offotu99999999utoffo#5666666665#offfffffffffffffffffffffffffffffffffffffffffffffffffffffffffffffffffffffffffffffffffffffffffffffff",
"fo>>,,,,,,,,>>offottuuuuuuuuttoffo##55555555##offfffffffffffffffffffffffffffffffffffffffffffffffffffffffffffffffffffffffffffffffffffffffffffffff",
"fo>0eeeeeeee0>offot0eeeeeeee0toffo#0eeeeeeee0#offfffffffffffffffffffffffffffffffffffffffffffffffffffffffffffffffffffffffffffffffffffffffffffffff",
"fo:0eeeeeeee0:offo:0eeeeeeee0:offo:0eeeeeeee0:offfffffffffffffffffffffffffffffffffffffffffffffffffffffffffffffffffffffffffffffffffffffffffffffff",
"fo;::000000::;offo;::000000::;offo;::000000::;offfffffffffffffffffffffffffffffffffffffffffffffffffffffffffffffffffffffffffffffffffffffffffffffff",
"fo:OO::::::OO:offo:OO::::::OO:offo:OO::::::OO:offfffffffffffffffffffffffffffffffffffffffffffffffffffffffffffffffffffffffffffffffffffffffffffffff",
"foOOOOOOOOOOOOoffoOOOOOOOOOOOOoffoOOOOOOOOOOOOofffffffffffffffffffffffffffffffffffffffffffffffffffffffffffffffffffffffffffffffffffffffffffffffff",
"foOOOOOOOOOOOOoffoOOOOOOOOOOOOoffoOOOOOOOOOOOOofffffffffffffffffffffffffffffffffffffffffffffffffffffffffffffffffffffffffffffffffffffffffffffffff",
"foOOooooooooOOoffoOOooooooooOOoffoOOooooooooOOofffffffffffffffffffffffffffffffffffffffffffffffffffffffffffffffffffffffffffffffffffffffffffffffff",
"ffooffffffffooffffooffffffffooffffooffffffffooffffffffffffffffffffffffffffffffffffffffffffffffffffffffffffffffffffffffffffffffffffffffffffffffff",
"ffffffffffffffffffffffffffffffffffffffffffffffffffffffffffffffffffffffffffffffffffffffffffffffffffffffffffffffffffffffffffffffffffffffffffffffff",
"ffffffffffffffffffffffffffffffffffffffffffffffffffffffffffffffffffffffffffffffffffffffffffffffffffffffffffffffffffffffffffffffffffffffffffffffff",
"ff&&&&&&&&&&&&ffff@@@@@@@@@@@@ffff333333333333ffffffff&&&&&&&&&&&&&&&&&&&&ffffffffffff@@@@@@@@@@@@@@@@@@@@ffffffffffff33333333333333333333ffffff",
"f&,,,,,,,,,,,,&ff@666666666666@ff3tttttttttttt3ffffff&,,,,,,,,,,,,,,,,,,,,&ffffffffff@66666666666666666666@ffffffffff3tttttttttttttttttttt3fffff",
"&&,<<<,,,,<<<,&&@@688866668886@@33tuuuttttuuut33ffff&&,<<<,,<,,,,,,<,,<<<,&&ffffffff@@68886686666668668886@@ffffffff33tuuuttuttttttuttuuut33ffff",
"f&,<,<,,,,<,<,&ff@686866668686@ff3tututtttutut3ffffff&,<,<,,<,,,,,,<,,<,<,&ffffffffff@68686686666668668686@ffffffffff3tututtuttttttuttutut3fffff",
"&&,<<,,<<,,<<,&&@@688668866886@@33tuuttuuttuut33ffff&&,<<,,<,,<<<<,,<,,<<,&&ffffffff@@68866866888866866886@@ffffffff33tuuttuttuuuuttuttuut33ffff",
"f&,,,,<<<<,,,,&ff@666688886666@ff3ttttuuuutttt3ffffff&,,,,<<,<<<<<<,<<,,,,&ffffffffff@66668868888886886666@ffffffffff3ttttuutuuuuuutuutttt3fffff",
"&&,,,<<<<<<,,,&&@@666888888666@@33tttuuuuuuttt33ffff&&,,,<<<<<<<<<<<<<<,,,&&ffffffff@@66688888888888888666@@ffffffff33tttuuuuuuuuuuuuuuttt33ffff",
"f&,,,,<<<<,,,,&ff@666688886666@ff3ttttuuuutttt3ffffff&,,,,<<,<<<<<<,<<,,,,&ffffffffff@66668868888886886666@ffffffffff3ttttuutuuuuuutuutttt3fffff",
"&&,<<,,<<,,<<,&&@@688668866886@@33tuuttuuttuut33ffff&&,<<,,<,,<<<<,,<,,<<,&&ffffffff@@68866866888866866886@@ffffffff33tuuttuttuuuuttuttuut33ffff",
"f&,<,<,,,,<,<,&ff@686866668686@ff3tututtttutut3ffffff&,<,<,,<,,,,,,<,,<,<,&ffffffffff@68686686666668668686@ffffffffff3tututtuttttttuttutut3fffff",
"&&,<<<,,,,<<<,&&@@688866668886@@33tuuuttttuuut33ffff&&,<<<,,<,,,,,,<,,<<<,&&ffffffff@@68886686666668668886@@ffffffff33tuuuttuttttttuttuuut33ffff",
"f&,,,,,,,,,,,,&ff@666666666666@ff3tttttttttttt3ffffff&,,,,,,,,,,,,,,,,,,,,&ffffffffff@66666666666666666666@ffffffffff3tttttttttttttttttttt3fffff",
"ff&&&&&&&&&&&&ffff@@@@@@@@@@@@ffff333333333333ffffffff&&&&&&&&&&&&&&&&&&&&ffffffffffff@@@@@@@@@@@@@@@@@@@@ffffffffffff33333333333333333333ffffff",
"ffffffffffffffffffffffffffffffffffffffffffffffffffffffffffffffffffffffffffffffffffffffffffffffffffffffffffffffffffffffffffffffffffffffffffffffff"
};
