/* XPM */
static char *Basic_tools_and_meterials[] = {
/* columns rows colors chars-per-pixel */
"48 32 18 1 ",
"  c #545959",
". c #7F575D",
"X c #754C60",
"o c #5F7A79",
"O c #6B7470",
"+ c #90625D",
"@ c #AA7959",
"# c #B68962",
"$ c #C49A6C",
"% c #D1AB7D",
"& c #818B83",
"* c #97BB8E",
"= c #9DA89A",
"- c #DCB98A",
"; c #AED499",
": c #C1C8B9",
"> c #F3F4E7",
", c None",
/* pixels */
",,,,,,,,,,,,,,,,,,,,,,,,,,>>>,,,,,,,,,,>>>,,,,,,",
",,,,,,,,,,,,,,,,,,,,,,,,>>&&>,,,,,,,,,>&&&>,,,,,",
",,,,,,,,,,,,,,,,,,,,,,,>&&:O>,,,,,,,,>&:::&>>>>,",
",,,,,,,,,,,,,,,,,,,,,,>&::=O>>>,,,,,,,>OO=:&++>,",
",>>,,>>>>>,,,,,,,,,,,,>&:==O++>,,,,,,,,>>O==#X>,",
">OO>>OOOOO>>>,,,,,,,,>&:====#X>,,,,,,,,,,>+==O>,",
">O=OO:   :OOO>,,,,,,,>&OOO===O>,,,,,,,,,>+#XO>,,",
">O&=O=:::&O==O>,,,,,,>>>>+@=O>,,,,,,,,,>+#X>>,,,",
",> & ====&   & >,,,,,,,>+#XO>,,,,,,,,,>+#X>,,,,,",
",,>  ====& > & >,,,,,,>+#X>>,,,,,,,,,>+#X>,,,,,,",
",,,> &===&   & >,,,,,>+#X>,,,,,,,,,,>+#X>,,,,,,,",
",,,> &&&&& && >,,,,,>+#X>,,,,,,,,,,>+#X>,,,,,,,,",
",,,,>     >  >,,,,,>+#X>,,,,,,,,,,>+#X>,,,,,,,,,",
",,,,,>>>>>,>>,,,,,>+#X>,,,,,,,,,,,>XX>,,,,,,,,,,",
",,,,,,,,,,,,,,,,,,>XX>,,,,,,,,,,,,>>>,,,,,,,,,,,",
",,,,,,,,,,,,,,,,,,>>>,,,,,,,,,,,,,,,,,,,,,,,,,,,",
",,,,,,,,,,,,,,,,,,,,,,,,,,,,,,,,,,,,,,,,,,,,,,,,",
",,,,,,,,,,,,,,,,,,,,,,,,,,>>>>,,,,,,,>>>,,,,,,,,",
",,,,,,>>>,,,,,,,,,,,,,,,,>ooo>,,,,,,>+++>,,,,,,,",
",,,,,>OOO>,,,,,,,,,>>>,,>o**o>,,,,,>+---+>,,,,,,",
",,,,>O:::O>>,,,,,,>+++>,>o;*o>,,,,>+-%%-++>,,,,,",
",,,>O:::::OO>,,,,>+---+>+ooo>,,,,>+-%-%-+#+>,,,,",
",,,>O&:::==:O>,,,>+-%-++$#.>,,,,,>+-%%-+#$$+>,,,",
",,>O=&&===:::O>,,>X---+$#.>,,,,,,>X---+##$$$+>,,",
",> ===&==::::O>,,,>X++#$$.>,,,,,,,>X++####$$$X>,",
",> ====:::::: >,,,,>X###$$+>,,,,,,,>X##$$##$$X>,",
",> &==::::::& >,,,,,>X###$$+>,,,,,,,>X##$$###X>,",
",,> &&::::&&& >,,,,,,>X###$.>,,,,,,,,>X##$##X>,,",
",,,> &&&&&&  >,,,,,,,,>X###X>,,,,,,,,,>X###X>,,,",
",,,,>      >>,,,,,,,,,,>XXX>,,,,,,,,,,,>XXX>,,,,",
",,,,,>>>>>>,,,,,,,,,,,,,>>>,,,,,,,,,,,,,>>>,,,,,",
",,,,,,,,,,,,,,,,,,,,,,,,,,,,,,,,,,,,,,,,,,,,,,,,"
};
