/* XPM */
static char *Paths[] = {
/* columns rows colors chars-per-pixel */
"64 64 3 1 ",
"  c #AA7959",
". c #C49A6C",
"X c None",
/* pixels */
"XXXXXXXXXXXXXXXXXXXXXXXXXXXXXXXXXXXXXXXXXXXXXXXXXXXXXXXXXXXXXXXX",
"XXXXXXXXXXXXXXXXXXXXXXXXXXXXXXXXXXXXXXXXXXXXXXXXXXXXXXXXXXXXXXXX",
"XXXXXXXXXXXXXXXXXXXXXXXXXXXXXXXXXXXXXXXXXXXXXXXXXXXXXXXXXXXXXXXX",
"XXXXXXXXXXXXXXXXXXXXXXXXXXXXXXXXXXXXXXXXXXXXXXXXXXXXXXXXXXXXXXXX",
"XXXXXXX.....XXXXXXXXXXXXXXXXXXXXXXXXXXXXXXXXXXXXXXXXXXXXXXXXXXXX",
"XXXXXXX.....XXXXXXXXXXXXXXXXXXXXXXXXXXXXXXXXXXXXXXXXXXXXXXXXXXXX",
"XXXXXXX     XXXXXXXXXXXXXXXXXXXXXXXXXXXXXXXXXXXXXXXXXXXXXXXXXXXX",
"XXXXXXXXXXXXXXXXXXXXXXXXXXXXXXXXXXXXXXXXXXXXXXXXXXXXXXXXXXXXXXXX",
"XX........XXXXXXXXXXXXXXXXXXXXXXXXXXXXXXXXXXXXXXXXXXXXXXXXXXXXXX",
"XX........XXXXXXXXXXXXXXXXXXXXXXXXXXXXXXXXXXXXXXXXXXXXXXXXXXXXXX",
"XX        XXXXXXXXXXXXXXXXXXXXXXXXXXXXXXXXXXXXXXXXXXXXXXXXXXXXXX",
"XXXXXXXXXXXXXXXXXXXXXXXXXXXXXXXXXXXXXXXXXXXXXXXXXXXXXXXXXXXXXXXX",
"XXXX.........XXXXXXXXXXXXXXXXXXXXXXXXXXXXXXXXXXXXXXXXXXXXXXXXXXX",
"XXXX.........XXXXXXXXXXXXXXXXXXXXXXXXXXXXXXXXXXXXXXXXXXXXXXXXXXX",
"XXXX         XXXXXXXXXXXXXXXXXXXXXXXXXXXXXXXXXXXXXXXXXXXXXXXXXXX",
"XXXXXXXXXXXXXXXXXXXXXXXXXXXXXXXXXXXXXXXXXXXXXXXXXXXXXXXXXXXXXXXX",
"XX..........XXXXXXXXXXXXXXXXXXXXXXXXXXXXXXXXXXXXXXXXXXXXXXXXXXXX",
"XX..........XXXXXXXXXXXXXXXXXXXXXXXXXXXXXXXXXXXXXXXXXXXXXXXXXXXX",
"XX          XXXXXXXXXXXXXXXXXXXXXX...XXXXXXXXXXXXXXXXXXXXXXXXXXX",
"XXXXXXXXXXXXXXXXXXXXXXXXXXXXXXXXXX...XXXXXXXXXXXXXXXXXXXXXXXXXXX",
"XXX...........XXXXXXXXXXX...XXXXXX.. XXXXXXXXXXXXXXXXXXXXXXXXXXX",
"XXX...........XXXXXXXXXXX...XXXXX...XXXXXXXXXXXXXXXXXXXXXXXXXXXX",
"XXX           XXXXXXXXXXX ...XXXX...XXXXXXXXXXXXXXXXXXXXXXXXXXXX",
"XXXXXXXXXXXXXXXXXXXXXXXXXX...XXXX.. XXXXXXXXXXXXXXXXXXXXXXXXXXXX",
"X..........XXXXXXXXXXXXXXX ...XX...XXXXXXXXXXXXXXXXXXXXXXXXXXXXX",
"X..........XXXXXXXXXXXXXXXX...XX...XXXXX...XXXXXXXXXXXXXXXXXXXXX",
"X          XXXXXXXX...XXXXX ...X   XXX.....XXXXXXXXXXXXXXXXXXXXX",
"XXXXXXXXXXXXXXXXXXX......XXX...XXXXX.....  XXXXXXXXXXXXXXXXXXXXX",
"XXX..........XXXXXX   .....X   XXX.....  XXXXXXXXXXXXXXXXXXXXXXX",
"XXX..........XXXXXXXXX  ...XXXXXXX...  XXXXXXXXXXXXXXXXXXXXXXXXX",
"XXX          XXXXXXXXXXX   XXXXXXX   XXXXXXXXXXXXXXXXXXXXXXXXXXX",
"XXXXXXXXXXXXXXXXXXXXXXXXXXXXXXXXXXXXXXXXXXXXXXXXXXXXXXXXXXXXXXXX",
"XX.........XXXXXXXXXXXXXXX...XXXXXXX...XXXXXXXXXXXXXXXXXXXXXXXXX",
"XX.........XXXXXXXXXXXXX.....XXXXXXX.....XXXXXXXXXXXXXXXXXXXXXXX",
"XX         XXXXXXXXXXX.....  XXX...X  ......XXXXXXXXXXXXXXXXXXXX",
"XXXXXXXXXXXXXXXXXXXX.....  XXXXX...XXX   ...XXXXXXXXXXXXXXXXXXXX",
"XXXXX........XXXXXXX...  XXX...X ...XXXXX   XXXXXXXXXXXXXXXXXXXX",
"XXXXX........XXXXXXX   XXXXX...XX...XXXXXXXXXXXXXXXXXXXXXXXXXXXX",
"XXXXX        XXXXXXXXXXXXXX... XX ...XXXXXXXXXXXXXXXXXXXXXXXXXXX",
"XXXXXXXXXXXXXXXXXXXXXXXXXXX...XXXX...XXXXXXXXXXXXXXXXXXXXXXXXXXX",
"XXX.....XXXXXXXXXXXXXXXXXXX.. XXXX ...XXXXXXXXXXXXXXXXXXXXXXXXXX",
"XXX.....XXXXXXXXXXXXXXXXXX...XXXXXX...XXXXXXXXXXXXXXXXXXXXXXXXXX",
"XXX     XXXXXXXXXXXXXXXXXX...XXXXXX   XXXXXXXXXXXXXXXXXXXXXXXXXX",
"XXXXXXXXXXXXXXXXXXXXXXXXXX   XXXXXXXXXXXXXXXXXXXXXXXXXXXXXXXXXXX",
"XXXXXXXXXXXXXXXXXXXXXXXXXXXXXXXXXXXXXXXXXXXXXXXXXXXXXXXXXXXXXXXX",
"XXXXXXXXXXXXXXXXXXXXXXXXXXXXXXXXXXXXXXXXXXXXXXXXXXXXXXXXXXXXXXXX",
"XXXXXXXXXXXXXXXXXXXXXXXXXXXXXXXXXXXXXXXXXXXXXXXXXXXXXXXXXXXXXXXX",
"XXXXXXXXXXXXXXXXXXXXXXXXXXXXXXXXXXXXXXXXXXXXXXXXXXXXXXXXXXXXXXXX",
"XXXXXXXXXXXXXXXXXXXXXXXXXXXXXXXXXXXXXXXXXXXXXXXXXXXXXXXXXXXXXXXX",
"XXXXXXXXXXXXXXXXXXXXXXXXXXXXXXXXXXXXXXXXXXXXXXXXXXXXXXXXXXXXXXXX",
"XXXXXXXXXXXXXXXXXXXXXXXXXXXX...XXXXX...XXXXXXXXX...XXXXXXXXXXXXX",
"XXXXXXXXXXXXXXXXXXXX...XXXXX...XXXXX...XXXXX...X...XXXXX...XXXXX",
"XXXXXXXXXXXXXXXXXXXX...XXXXX...X...X...XXXXX...X...XXXXX...XXXXX",
"XXXXXXXXXXXXXXXXXXXX...X...X...X...X...X...X...X...X...X...XXXXX",
"XXXXXXXXXXXXXXXXXXXX...X...X...X...X...X...X...X...X...X...XXXXX",
"XXXXXXXXXXXXXXXXXXXX   X...X...X...X...X...X...X...X...X   XXXXX",
"XXXXXXXXXXXXXXXXXXXXXXXX...X...X...X...X...X...X...X...XXXXXXXXX",
"XXXXXXXXXXXXXXXXXXXXXXXX...X...X...X...X...X...X...X...XXXXXXXXX",
"XXXXXXXXXXXXXXXXXXXXXXXX...X   X...X...X...X...X   X...XXXXXXXXX",
"XXXXXXXXXXXXXXXXXXXXXXXX...XXXXX...X...X...X...XXXXX...XXXXXXXXX",
"XXXXXXXXXXXXXXXXXXXXXXXX   XXXXX...X   X...X   XXXXX   XXXXXXXXX",
"XXXXXXXXXXXXXXXXXXXXXXXXXXXXXXXX   XXXXX...XXXXXXXXXXXXXXXXXXXXX",
"XXXXXXXXXXXXXXXXXXXXXXXXXXXXXXXXXXXXXXXX   XXXXXXXXXXXXXXXXXXXXX",
"XXXXXXXXXXXXXXXXXXXXXXXXXXXXXXXXXXXXXXXXXXXXXXXXXXXXXXXXXXXXXXXX"
};
