/* XPM */
static char *Wood_Bridge[] = {
/* columns rows colors chars-per-pixel */
"80 48 4 1 ",
"  c #90625D",
". c #AA7959",
"X c #C49A6C",
"o c None",
/* pixels */
"oooooooooooooooooooooooooooooooooooXXoooooooooooooooooooooooooooooooooooooXXoooo",
"oooooooooooooooooooooooooooooooooo XX oooXXooXXooXXooXXooXXooXXooXXooXXoo XX ooo",
"oXXooooooooooXXooooooooooooooooooo ..    XX  XX  XX  XX  XX  XX  XX  XX   .. ooo",
" .. oooooooo .. ooooooooooooooooooo  ooooXXooXXooXXooXXooXXooXXooXXooXXooo  oooo",
" .. oooooooo .. oooooooooooooooooooooooooXXooXXooXXooXXooXXooXXooXXooXXooooooooo",
"o  oooooooooo  ooooooooooooooooooooooooooXXooXXooXXooXXooXXooXXooXXooXXooooooooo",
"o. oooooooooo .ooXXooooooooooXXooooooooooXXooXXooXXooXXooXXooXXooXXooXXooooooooo",
"oo oooooooooo oo .. oooooooo .. oooooooooXXooXXooXXooXXooXXooXXooXXooXXooooooooo",
"oXXXXXXXXXXXXXXo .. oooooooo .. oooooooooXXooXXooXXooXXooXXooXXooXXooXXooooooooo",
"oXXXXXXXXXXXXXXoo  oooooooooo  ooooooooooXXooXXooXXooXXooXXooXXooXXooXXooooooooo",
"o. .......... .oo. oooooooooo .ooooooooooXXooXXooXXooXXooXXooXXooXXooXXooooooooo",
"oo oooooooooo oooo oooooooooo oooooooooooXXooXXooXXooXXooXXooXXooXXooXXooooooooo",
"oXXXXXXXXXXXXXXooXXXXXXXXXXXXXXooooXXooooXXooXXooXXooXXooXXooXXooXXooXXoooXXoooo",
"oXXXXXXXXXXXXXXooXXXXXXXXXXXXXXooo XX    XX  XX  XX  XX  XX  XX  XX  XX   XX ooo",
"o. .......... .oo. .......... .ooo .. ooo..oo..oo..oo..oo..oo..oo..oo..oo .. ooo",
"oo oooooooooo oooo oooooooooo ooooo  ooooooooooooooooooooooooooooooooooooo  oooo",
"oXXXXXXXXXXXXXXooXXXXXXXXXXXXXXooooooooXXoooooooooooooooooooooooooooooXXoooooooo",
"oXXXXXXXXXXXXXXooXXXXXXXXXXXXXXooooooo XX oooXXooXXooXXooXXooXXooXXoo XX ooooooo",
"o. .......... .oo. .......... .ooooooo ..    XX  XX  XX  XX  XX  XX   .. ooooooo",
"oo oooooooooo oooo oooooooooo ooooooooo  ooooXXooXXooXXooXXooXXooXXooo  oooooooo",
"oXXXXXXXXXXXXXXooXXXXXXXXXXXXXXooooooooooooooXXooXXooXXooXXooXXooXXooooooooooooo",
"oXXXXXXXXXXXXXXooXXXXXXXXXXXXXXooooooooooooooXXooXXooXXooXXooXXooXXooooooooooooo",
"o. .......... .oo. .......... .ooooooooooooooXXooXXooXXooXXooXXooXXooooooooooooo",
"oo oooooooooo oooo oooooooooo oooooooooooooooXXooXXooXXooXXooXXooXXooooooooooooo",
"oXXXXXXXXXXXXXXooXXXXXXXXXXXXXXooooooooooooooXXooXXooXXooXXooXXooXXooooooooooooo",
"oXXXXXXXXXXXXXXooXXXXXXXXXXXXXXooooooooooooooXXooXXooXXooXXooXXooXXooooooooooooo",
"o. .......... .oo. .......... .ooooooooooooooXXooXXooXXooXXooXXooXXooooooooooooo",
"oo oooooooooo oooo oooooooooo oooooooooooooooXXooXXooXXooXXooXXooXXooooooooooooo",
"oXXXXXXXXXXXXXXooXXXXXXXXXXXXXXooooooooXXooooXXooXXooXXooXXooXXooXXoooXXoooooooo",
"oXXXXXXXXXXXXXXooXXXXXXXXXXXXXXooooooo XX    XX  XX  XX  XX  XX  XX   XX ooooooo",
"o. .......... .oo. .......... .ooooooo .. ooo..oo..oo..oo..oo..oo..oo .. ooooooo",
"oo oooooooooo oooo oooooooooo ooooooooo  ooooooooooooooooooooooooooooo  oooooooo",
"oXXXXXXXXXXXXXXooXXXXXXXXXXXXXXooooooooooooooooooooooooooooooooooooooooooooooooo",
"oXXXXXXXXXXXXXXooXXXXXXXXXXXXXXooooooooooooooooooooooooooooooooooooooooooooooooo",
"o. .......... .oo. .......... .ooooooooooooooooooooooooooooooooooooooooooooooooo",
"oo oooooooooo oooo oooooooooo oooooooooooooooooooooooooooooooooooooooooooooooooo",
"oXXXXXXXXXXXXXXooXXooooooooooXXooooooooooooooooooooooooooooooooooooooooooooooooo",
"oXXXXXXXXXXXXXXo .. oooooooo .. oooooooooooooooooooooooooooooooooooooooooooooooo",
"o. .......... .o .. oooooooo .. oooooooooooooooooooooooooooooooooooooooooooooooo",
"oo oooooooooo ooo  oooooooooo  ooooooooooooooooooooooooooooooooooooooooooooooooo",
"oXXooooooooooXXoo..oooooooooo..ooooooooooooooooooooooooooooooooooooooooooooooooo",
" .. oooooooo .. oooooooooooooooooooooooooooooooooooooooooooooooooooooooooooooooo",
" .. oooooooo .. oooooooooooooooooooooooooooooooooooooooooooooooooooooooooooooooo",
"o  oooooooooo  ooooooooooooooooooooooooooooooooooooooooooooooooooooooooooooooooo",
"o..oooooooooo..ooooooooooooooooooooooooooooooooooooooooooooooooooooooooooooooooo",
"oooooooooooooooooooooooooooooooooooooooooooooooooooooooooooooooooooooooooooooooo",
"oooooooooooooooooooooooooooooooooooooooooooooooooooooooooooooooooooooooooooooooo",
"oooooooooooooooooooooooooooooooooooooooooooooooooooooooooooooooooooooooooooooooo"
};
