/* XPM */
static char *result[] = {
/* columns rows colors chars-per-pixel */
"48 48 26 1 ",
"  c #222323",
". c #8F2F3C",
"X c #FE1F48",
"o c #FB2C4E",
"O c #F93A54",
"+ c #F6475A",
"@ c #F45360",
"# c #F25E65",
"$ c #F0696A",
"% c #768449",
"& c #7C8E4D",
"* c #7F9B4E",
"= c #87AA1C",
"- c #8FB31E",
"; c #95BB1F",
": c #9FC42C",
"> c #A4C92D",
", c #AC8D5E",
"< c #85AA51",
"1 c #CAB089",
"2 c #DFDCB4",
"3 c #E0D1A8",
"4 c #E7E4B9",
"5 c #EEEBBD",
"6 c #F6F1C0",
"7 c #FCF7C3",
/* pixels */
";--;;;--;;::;;;---;;;--;;-=;;-;;;;;;::;;;;;;;;;-",
";;;;----;;;::;;;;;;;;;;;;--;;-;--;;;;::;;:;;--;;",
";;;---;--;;;:;;:;;;;;;;;;;;;--;--;;;-;:;::;----;",
"-----;;--;;-;;;;--;;-;::;;;-;;;--;;;-;;;;;--;;;-",
"----;;;;;-;---;--=;;-;::;;;;;;;;--;;;;;;;;--;:;-",
"-;;;::;;;-;;--;---;;-;;:;-;:;;;;;;-;;;------;::;",
";::::;;;-;;;;;;--;;;;;;;--;;;;:::;--;-------;:::",
";:>:;;;--;;::;;;;;:;;;;;;--;;;;::;;;;-=-----;;:>",
";::;;;;--;::>:;;;;:;;;;;;-=-;-;;:;::;---;;--;;;:",
";;;;;---;-;;:::;::;---;;--=-;;;;;:;;--;;;;--;;;;",
";--;;-=----;;::;::;-=-;;-----;;;;;;---;;;;;-----",
";---;;---;--;;:-;:;-----;;;----;;;;;;;;;;;;;--;;",
"----;;--;;;-%&33O;;-----;;-;;----;;-;;:;;;::;;;-",
";;;;-;;::;;-%12$Xoo;----;;;;;-=-;;;;;;::;;;;;;;-",
";--;-;:::;;%%33XXoooO---;;;;;---;;;;;;;:;--;;;;;",
"--=--;;::::%,21XXooooOO;;::;;;;--;;-;;;;;;;---;;",
"-==-;;;;:::%12@XXoooOOOOO+::;;;;;;--;;;;;-----;;",
"----;;;;;:%%33XXXooooOOOO+++:;;;;;--;--;;----;;;",
";---;;-;;;%*21XXXooooOOOO++++@:;--;;--=-;;;;;;;;",
";;--;;--;-%,21XXXo  oOOOO++++@@@;;;;;---;;;;:;;-",
";;;;;;-;;-%12$XXXo.ooOOOO++++@@@###:;;;-;;;::;;-",
";;;::;;::;%12#XXXooooOOOO++++@@@###$$::;;;:::;;;",
"-;;:::;:>;%32OXXXoooo.OOO++++@@@###$$$$:;;::;;;;",
"-;;;::;::%%32OXXXooo  OOO+++++@@###$$$$57;:;;;--",
";--;;;;;;%%32#XXXooo.OOOO.##+ .@###$$$375<;;;--;",
";--;;-;---%12$XXXooooOOOO .++..@###$$$771*%----;",
";;-;;;;---%121XXXooooOOOO.+++@@@###$$573<*%;-;;;",
";;;;::;;;;%,23XXXooooOOOO++++@@@###$375<<*%;;;-=",
";;::::;;;;%&22$XXooooOOOO++++@@@###376,*<&%;;;--",
";:>:;;;--;%%123XXooooOOOO++++@@@#$3661%*<*%;:;;;",
":::;;;---;-%*221XooooOOOO++++@@@$5661%%*<&%;;::;",
">:;;;;;-;;-%%1221ooooOOOO++++@$36661*%%<<%;;;::;",
":;;;;;;;;;;-%%1223$ooOOOO+++$35664<<&%*<<%--;:;;",
";;-;;-;;;::;;%%1244311$$113455651<<<%%<<&---;;;-",
"--;;;;;;;::;:;%%,34444445555521&%<<&%&<<&;--;;;-",
"--;;;---;:;;::;%%&1324445431<*&%%<<%%*<<;;;;-;;;",
";--;----;;;-;;;;-&&&%*,<<%%&**%%*<&%%<<::;;;;-;;",
";----=-;;;----;;---%%&**&%%**&%%<*%%%;:::;;;---;",
";;;---;;;-;;;-;;;;;;-;**%%%**%%&<&%:;:::;;;;---;",
";;-;;;;;;;;;--;::;;;;;;;--;;;;---;::;::;--;;;;--",
";;;;;;;;:;;:;-;:::;;;:;;;;;;;;---;;;;;;--;;;;;;;",
";;;:;;;::;::;--:::;;;:;;;;;;;-;--;;;;;---;;;;;;;",
";::;;;;::::;;--;::;::;--;::;;;;;;;;;-;---;;::;;-",
":::;;;;;:::;---;;;;;:;--;;::::;;;:;;;;;=--;;::;;",
">::;;;-;;:;----;;;-;;;---;;:::;;;::;;;----;;;::;",
"::;-;;;;;;;;;--;;;;;;----;;;::;::;;;----;;--;::;",
":;;;-;;;---;;--;;:;;--;;--;;;;;;:;-----;;;;-;;;;",
";;;;--;;--;;--;;::;---;;-;;-;;-;;---;;;--;;---;;"
};
