/* XPM */
static char *badfcaa473c44aa7c84c166571265862wX4hclmBMRBQK1IK[] = {
/* columns rows colors chars-per-pixel */
"48 48 162 2 ",
"   c #564028",
".  c #54463B",
"X  c #524A3F",
"o  c #644E39",
"O  c #66513E",
"+  c #69533A",
"@  c #795937",
"#  c #775A3D",
"$  c #62603C",
"%  c #69633E",
"&  c #4C4341",
"*  c #504745",
"=  c #5E4F42",
"-  c #544F4C",
";  c #5D5142",
":  c #5B5D46",
">  c #645445",
",  c #6A5544",
"<  c #655B44",
"1  c #6F5A46",
"2  c #665648",
"3  c #6A5748",
"4  c #695849",
"5  c #795F47",
"6  c #745F49",
"7  c #6C6546",
"8  c #656A42",
"9  c #6B6448",
"0  c #786F40",
"q  c #75624A",
"w  c #7E6248",
"e  c #786E49",
"r  c #6A7141",
"t  c #6E734A",
"y  c #747C45",
"u  c #7F7846",
"i  c #815E3C",
"p  c #82613D",
"a  c #8C663E",
"s  c #8D693E",
"d  c #92683F",
"f  c #857F34",
"g  c #89753D",
"h  c #827C3D",
"j  c #856544",
"k  c #8D6944",
"l  c #866C48",
"z  c #8A6848",
"x  c #936C44",
"c  c #996F44",
"v  c #946F49",
"b  c #817C47",
"n  c #8A7942",
"m  c #957346",
"M  c #9C7245",
"N  c #957B45",
"B  c #9C7A45",
"V  c #947649",
"C  c #9D754A",
"Z  c #957E4C",
"A  c #9D7E4B",
"S  c #847151",
"D  c #8F7151",
"F  c #967455",
"G  c #967B51",
"H  c #9D7C56",
"J  c #987858",
"K  c #A37646",
"L  c #A67846",
"P  c #A87B47",
"I  c #A47748",
"U  c #A47B4A",
"Y  c #A97B49",
"T  c #A67E55",
"R  c #7B951A",
"E  c #7D942E",
"W  c #778539",
"Q  c #7B863B",
"!  c #7F8F3C",
"~  c #7D9337",
"^  c #7B824A",
"/  c #87AA1C",
"(  c #8FB31E",
")  c #95BB1F",
"_  c #819C23",
"`  c #829B2E",
"'  c #8F8636",
"]  c #8C8F34",
"[  c #85853D",
"{  c #89833B",
"}  c #8B8B3B",
"|  c #918D3F",
" . c #869536",
".. c #8C9437",
"X. c #859935",
"o. c #8D9F37",
"O. c #829639",
"+. c #8C943C",
"@. c #879B3E",
"#. c #889A3A",
"$. c #939C37",
"%. c #93913D",
"&. c #939D3C",
"*. c #8DAE24",
"=. c #8AA52C",
"-. c #8DAA2C",
";. c #90AF21",
":. c #92AD2C",
">. c #8FB122",
",. c #8EB02A",
"<. c #92B523",
"1. c #95BA22",
"2. c #93B52A",
"3. c #96B92C",
"4. c #9DBF2F",
"5. c #86A034",
"6. c #8BA635",
"7. c #8AA831",
"8. c #89A03B",
"9. c #93A533",
"0. c #92AB33",
"q. c #95A639",
"w. c #9DBC34",
"e. c #9BB139",
"r. c #9FC42C",
"t. c #A0C52E",
"y. c #A4C92D",
"u. c #848344",
"i. c #8A8240",
"p. c #868841",
"a. c #8D8845",
"s. c #8D814B",
"d. c #8D8A4A",
"f. c #938D44",
"g. c #9A8A44",
"h. c #94834B",
"j. c #998149",
"k. c #99864A",
"l. c #9A834F",
"z. c #928B49",
"x. c #938C49",
"c. c #92884F",
"v. c #95884F",
"b. c #8B9743",
"n. c #929040",
"m. c #939741",
"M. c #999543",
"N. c #969940",
"B. c #969C41",
"V. c #949B48",
"C. c #AC804E",
"Z. c #AE8150",
"A. c #B38757",
"S. c #B18B5B",
"D. c #B68B5B",
"F. c #B0885C",
"G. c #B58B5D",
"H. c #B78D5D",
"J. c #9F8E7F",
"K. c #A08166",
"L. c #A1866A",
"P. c #A5A4A2",
/* pixels */
") ( ( ) ) ) ( ( ) ) r.r.) ) ) ( ( ( ) ) ) ( ( ) ) ( / ) ) ( ) ) ) ) ) ) r.r.) ) ) ) ) ) ) ) ) ( ",
") ) ) ) ( ( ( ( ) ) ) r.r.) ) ) ) ) ) ) ) ) ) ) ) ( ( ) ) ( ) ( ( ) ) ) ) r.r.) ) r.) ) ( ( ) ) ",
") ) ) ( ( ( ) ( ( ) ) ) r.) ) r.) ) ) ) ) ) ) ) ) ) ) ) ( ( ) ( ( ) ) ) ( ) r.) r.r.) ( ( ( ( ) ",
"( ( ( ( ( ) ) ( ( ) ) ( ) ) ) ) ( ( ) ) ( ) r.r.) ) ) ( ) ) ) ( ( ) ) ) ( ) ) ) ) ) ( ( ) ) ) ( ",
"( ( ( ( ) ) ) ) ) ( ) ( ( ( ) ( ( / ) ) ( ) r.r.) ) ) ) ) ) ) ) ( ( ) ) ) ) ) ) ) ) ( ( ) r.) ( ",
"( ) ) ) r.r.) ) ) ( ) ) ( ( ) >.=.>.6.6.<.) ) r.) ( ) r.) ) ) ) ) ) ( ) ) ) ( ( ( ( ( ( ) r.r.) ",
") r.r.r.r.) ) ) ( ) ) ) ) 1.1.8 X 9 - : ` 1.) ) ( ( ) ) ) ) r.r.r.) ( ( ) ( ( ( ( ( ( ( ) r.r.r.",
") r.y.r.) ) ) ( ( ) 1.4.w.9.f.k C , & * e q.1.) ) ( ( ) ) ) ) r.r.) ) ) ) ( / ( ( ( ( ( ) ) r.y.",
") r.r.) ) ) ) ( ( <.e.B.k.C T a L v 3 1 m l.9.1.) ( / ( ) ( ) ) r.) r.r.) ( ( ( ) ) ( ( ) ) ) r.",
") ) ) ) ) ( ( -.9.| A U L @ J.F L K M M L L h.0.( ( / ( ) ) ) ) ) r.) ) ( ( ) ) ) ) ( ( ) ) ) ) ",
") ( ( ) ) <.X.f.A I L L L   P.K.L L L L L L U z.=.( ( ( ( ) ) ) ) ) ) ( ( ( ) ) ) ) ) ( ( ( ( ( ",
") ( ( ( 1.b.Z U L L L L L a L.U L L L L L L L U g.$.2.( ( ( ( ) ) ) ) ) ) ) ) ) ) ) ) ) ( ( ) ) ",
"( ( ( ( 2.7 O T C.L L L L L K L L L L L L L L L U A f.-.) ( ( ( ( ) ) ( ) ) r.) ) ) r.r.) ) ) ( ",
") ) ) ) ,.q D G.A.Y L L L L L L L L L L L L L L L L U V.3.( / ( ) ) ) ) ) ) r.r.) ) ) ) ) ) ) ( ",
") ( ( ) ( u G.H.D.Z.L L L L L L L L L L L L L L L L U A &.>.( ( ) ) ) ) ) ) ) r.) ( ( ) ) ) ) ) ",
"( ( / ( ( #.G.H.H.A.U L L L L L L L L L L K L L L L L U A 9.1.( ( ) ) ( ) ) ) ) ) ) ) ( ( ( ) ) ",
"( / / ( ) 3.v.S.F.T C K L L L L L L L L L x c K L L L L U g.:.1.) ) ( ( ) ) ) ) ) ( ( ( ( ( ) ) ",
"( ( ( ( ) ) <.d.H T U M B K L L L L L L L I j c L L L L L U N.<.) ) ( ( ) ( ( ) ) ( ( ( ( ) ) ) ",
") ( ( ( ) ) ( :.M.g.' ] ..N L L L L L L L L L x L L L L L L A $.<.( ) ) ( ( / ( ) ) ) ) ) ) ) ) ",
") ) ( ( ) ) ( ( 1.*.*.( ) o.M L L L L L L L L L L L L L L L U B &.3.) ) ) ( ( ( ) ) ) ) r.) ) ( ",
") ) ) ) ) ) ( ) ) ( ( / ( 3.V L L L L L L L L L L L L L L L L Y U m.<.r.) ) ) ( ) ) ) r.r.) ) ( ",
") ) ) r.r.) ) r.r.) ( / ( ) n L L L L L L L L L L L L L L L L L L U %.2.r.r.r.) ) ) r.r.r.) ) ) ",
"( ) ) r.r.r.) r.y.) ( ( ( ) d.L L L L L L L L L L L L L L L L L L L U f.*.r.r.r.) ) r.r.) ) ) ) ",
"( ) ) ) r.r.) r.r.) ) ) ) ) | L L L L L L L L L L L L L L L L L L L L Y x.:.r.r.r.) r.) ) ) ( ( ",
") ( ( ) ) ) ) ) ) ) ) ( ) ) } L L L K K L L L L L L L L L L L L L L L L U k.0.r.r.) ) ) ) ( ( ) ",
") ( ( ) ) ( ) ( ( ( ) ) ) ) } L L L M x K L L L L L L L L L L L L L L L L Y s.-.1.) ) ( ( ( ( ) ",
") ) ( ) ) ) ) ( ( ( ) ) ) ) } K L L K x M L L L L L L K M K L L L L L L L L U &.<.) ) ) ( ) ) ) ",
") ) ) ) r.r.) ) ) ) ( ( ) ) @.x L L L L L L L L L L L K c M L L L L L L L L P j.:.( ) ) ) ) ( / ",
") ) r.r.r.r.) ) ) ) ( ( ) ) 3.l L L L L L L L L L L L K x c L L L L L L L L L U ..( ) ) ) ) ( ( ",
") r.y.r.) ) ) ( ( ) ( / ) ( <.u.L L L L L L L L L L L K x c L L L L L L L L L Y h >.) ) r.) ) ) ",
"r.r.r.) ) ) ( ( ( ) ( / ) ( / [ L L L L L L L L L L L L M M L L L L L L L L L Y i.1.) ) ) r.r.) ",
"y.r.) ) ) ) ) ( ) ) ( ( ) ( ( f L L L L L L L L L L L L K K L L L L L L L K M K h.>.) ) ) r.r.) ",
"r.) ) ) ) ) ) ) ) ) ) ( ) ) ) c.L L L L L L L L L L L L L L L L L L L L L K x M Z >.( ( ) r.) ) ",
") ) ( ) ) ( ) ) ) r.r.) ) ) ( n L L L L L L L L L L L L L L L L L L L L L M c K J ;.( ( ) ) ) ( ",
"( ( ) ) ) ) ) ) ) r.r.) r.) ) g K L L L L L L L L L L L L L L L L L L L L L K K x <.( ( ) ) ) ( ",
"( ( ) ) ) ( ( ( ) r.) ) r.r.) S M L L K K L L L L L L L L L L L L L L L L L L L v <.) ) ( ) ) ) ",
") ( ( ) ( ( ( ( ) ) ) ( ) ) ) 1 z M M m m K L L M L L L L L L L L L L L L L L L G <.) ) ) ( ) ) ",
") ( ( ( ( / ( ) ) ) ( ( ( ( 1., w j l p.+.B K L k x L L L L L L L L L L L L L K x.1.) ) ( ( ( ) ",
") ) ) ( ( ( ) ) ) ( ) ) ) ( 3., w 5 0 =.*.} M L M x M L L L L L L L L L L L L V 9.1.) ) ( ( ( ) ",
") ) ( ) ) ) ) ) ) ) ) ) ( ( =.> 6 6 Q <.1.2.{ x L K M L L L L L L L L L L L K n.*.( ) ) ) ) ( ( ",
") ) ) ) ) ) ) ) r.) ) r.) ( X.2 3 7 ` ) ) r.<.+.c L K L L L L L L L L L L K v.0.( ) ) ) ) ) ) ) ",
") ) ) r.) ) ) r.r.) r.r.) ` < 2 2 % R ) ) t.-.~ 9 i d K L L L K L L K K m a.-.( ( ) ) ) ) ) ) ) ",
") r.r.) ) ) ) r.r.r.r.) 3.$ . > ; % _ r.r.E < = 4 > = O # p s p o + b  .=.1.( ( ( ) ) r.r.) ) ( ",
"r.r.r.) ) ) ) ) r.r.r.) <.` t r O.W <.) r.1.E y ^ Q Q ! @.8.6.5.7.w.) ) ) ) ) / ( ( ) ) r.r.) ) ",
"y.r.r.) ) ) ( ) ) r.) ( ( ( =.3.) 1.( ) ) ) ( ( ( ) ) r.r.r.) ) ) r.r.) ) ) ( ( ( ( ) ) ) r.r.) ",
"r.r.) ( ) ) ) ) ) ) ) ) ) ( ( ) ) ) ) ) ) ( ( ( ( ) ) ) r.r.) r.r.) ) ) ( ( ( ( ) ) ( ( ) r.r.) ",
"r.) ) ) ( ) ) ) ( ( ( ) ) ( ( ) ) r.) ) ( ( ) ) ( ( ) ) ) ) ) ) r.) ( ( ( ( ( ) ) ) ) ( ) ) ) ) ",
") ) ) ) ( ( ) ) ( ( ) ) ( ( ) ) r.r.) ( ( ( ) ) ( ) ) ( ) ) ( ) ) ( ( ( ) ) ) ( ( ) ) ( ( ( ) ) "
};
