/* XPM */
static char *result[] = {
/* columns rows colors chars-per-pixel */
"48 48 129 2 ",
"   c #323636",
".  c #343C37",
"X  c #383F36",
"o  c #343B38",
"O  c #245E1B",
"+  c #226316",
"@  c #246917",
"#  c #256419",
"$  c #29641E",
"%  c #266918",
"&  c #296C1A",
"*  c #356F17",
"=  c #326D1A",
"-  c #2C721D",
";  c #34711A",
":  c #3C7B1D",
">  c #2A4D27",
",  c #2D442D",
"<  c #2E4A2C",
"1  c #3D4F2F",
"2  c #275720",
"3  c #2B5727",
"4  c #275A20",
"5  c #2A5A23",
"6  c #2D5529",
"7  c #2D5A29",
"8  c #31532D",
"9  c #3D502F",
"0  c #355C29",
"q  c #2F4630",
"w  c #344336",
"e  c #3B4536",
"r  c #344D35",
"t  c #3E4A35",
"y  c #354438",
"u  c #394638",
"i  c #364C39",
"p  c #384E3A",
"a  c #335133",
"s  c #2F6426",
"d  c #2F6E22",
"f  c #346126",
"g  c #316A24",
"h  c #316229",
"j  c #2F7420",
"k  c #327622",
"l  c #357924",
"z  c #387C27",
"x  c #367828",
"c  c #3A7D29",
"v  c #3A6B32",
"b  c #447C17",
"n  c #4F5D2F",
"m  c #414C34",
"M  c #455234",
"N  c #495634",
"B  c #425E31",
"V  c #4C5B32",
"C  c #505F31",
"Z  c #46652A",
"A  c #596B2D",
"S  c #5C712C",
"D  c #5C7F2A",
"F  c #426131",
"G  c #526333",
"H  c #566830",
"J  c #596A35",
"K  c #627C27",
"L  c #62762B",
"P  c #657B2B",
"I  c #677D35",
"U  c #3E812D",
"Y  c #4D831A",
"T  c #508519",
"R  c #548C1B",
"E  c #5A8A1E",
"W  c #5D911D",
"Q  c #63931A",
"!  c #6D9A1C",
"~  c #749F1B",
"^  c #76A31D",
"/  c #7EA61D",
"(  c #7EA91D",
")  c #4D8727",
"_  c #41832E",
"`  c #438532",
"'  c #468935",
"]  c #498B37",
"[  c #4C8D3A",
"{  c #4E903D",
"}  c #50923F",
"|  c #6C8627",
" . c #67812C",
".. c #6B832A",
"X. c #6E8829",
"o. c #728C27",
"O. c #718D2A",
"+. c #6A9D29",
"@. c #749225",
"#. c #789423",
"$. c #779A26",
"%. c #7D9D23",
"&. c #749028",
"*. c #6E8934",
"=. c #6D8438",
"-. c #718B33",
";. c #799433",
":. c #7FA026",
">. c #7BA32B",
",. c #549542",
"<. c #579845",
"1. c #589946",
"2. c #86AC1D",
"3. c #8BAD1E",
"4. c #8FB31E",
"5. c #95BB1F",
"6. c #809F24",
"7. c #82A323",
"8. c #86A823",
"9. c #89AB22",
"0. c #8BAB2C",
"q. c #8EB121",
"w. c #90B421",
"e. c #94BA20",
"r. c #9ABD2D",
"t. c #8CAD32",
"y. c #92B330",
"u. c #9FC42C",
"i. c #A4C92D",
/* pixels */
"5.4.4.5.5.5.4.4.5.5.u.u.5.5.5.4.4.4.5.5.e.4.4.e.e.4.2.5.5.4.5.5.5.5.5.5.u.u.5.5.5.5.5.5.5.5.5.4.",
"5.5.5.5.4.4.4.4.5.5.5.u.u.5.5.5.5.5.5.5.e.8.F p i . L e.5.4.5.4.4.5.5.5.5.u.u.5.5.u.5.5.4.4.5.5.",
"5.5.5.4.4.4.5.4.4.5.5.5.u.5.5.u.5.^ Q 4.( E h 5 6 > Z O.9.#.| 9.4.5.5.5.4.5.u.5.u.u.5.4.4.4.4.5.",
"4.4.4.4.4.5.5.4.4.5.5.4.5.5.4.( ( T - ^ W - @ @ # @ 5 F $.S 1 o.7.8.:.q.4.5.5.5.5.5.4.4.5.5.5.4.",
"4.4.4.4.5.5.5.5.5.4.5.4.4.4.Q ; : - - ) ` U - - z - & f F 0 O B M t M ..5.5.5.e.5.5.4.4.5.u.5.4.",
"4.5.5.5.i.u.5.5.5.4.5.5.2.W : # ; U ` [ [ ' U U z _ _ c v g # 3 > < w V | q.4.4.4.4.4.4.5.u.u.5.",
"5.i.u.u.u.5.5.5.4.5.2.2.^ ; d x U { <.<.<.,.} U l { ,.[ ' c - & @ # a e 9 &.7.7.4.4.4.4.5.i.u.u.",
"5.u.i.u.5.5.5.4.4.( Y ; : c U ,.,.<.<.<.<.<.,.] U [ ,.,.,.{ ' c j s a 6 4 B 9 n :.4.4.4.5.5.u.i.",
"5.u.u.5.5.5.5.4.~ T = - z b ,.,.<.<.,.<.<.<.<.} [ { ,.<.,.} ] U z k h s j 5 r t A 6.4.4.5.5.5.i.",
"5.5.5.5.5.4.4.4.W $ - c ` ` ' [ ,.<.<.<.<.<.,.{ [ ,.,.,.{ [ ' - l U l z c & 5 r w K 4.4.5.5.5.5.",
"5.4.4.5.5.4.2.4.+.' ' [ ,.,.[ ` [ ,.<.<.,.[ { ' ` ` ] { [ [ U - l U U U ` c k s O E 5.4.3.4.4.4.",
"5.4.4.4.5.5.2.Q ) ] } <.<.<.} ' ' ] ,.,.,.,.,.[ ] ' ' ` U U U z U ' ' ' ' ` x & 5 Z ..q.4.4.5.5.",
"4.4.4.4.5.4.! ; x ' ,.<.<.,.} ] ` ' } ,.<.<.<.<.,.{ [ U k l U U ` { { { { ` z d 8 w m 6.4.5.5.4.",
"5.5.5.5.4.Q ; z ' ,.,.<.,.} ' ` ' } ,.<.<.<.<.<.<.<.{ ' U l j U ' { ,.<.,.{ ` x s 6 u m | 5.5.4.",
"5.4.4.5.4.W & U [ ,.<.,.} ' ` ` } ,.1.<.<.<.<.<.<.,.} [ ` l - ` ] { <.,.,.,.[ ` # 6 i o L 5.5.5.",
"4.4.2.3.2.R - c ` [ ,.} ' _ _ ' ,.<.<.<.<.,.<.<.,.[ [ ' ` z l ' { { ,.{ { ,.,.' & 3 r . A 7.5.5.",
"4.2.2.( b & - - z ` [ ' U k c [ ,.<.<.<.,.[ ,.,.[ [ ' ` ] ` U [ ,.,.[ { ,.{ ,.` j @ 3 a t n 8.5.",
"4.4.4./ * & l c ` [ ,.[ ` z U [ ,.,.,.,.,.,.,.,.,.] ' ] ' U c ` ,.<.,.,.,.[ { U j @ O q N | 9.5.",
"5.4.9.@.* k ` ] ,.<.<.,.[ ` U U ' ,.,.[ ,.,.[ ,.[ U ' ] U l - z ] ,.,.,.[ [ ` c - # 2 , A 9.4.5.",
"5.5...B & x ` ,.<.<.<.<.,.{ c l U ' ,.[ [ { [ ] U j z ` ` l & j c ` [ { ] ` z - @ 3 8 4 6 G 9.4.",
"5.5.7.D = x [ <.,.,.,.,.{ { U x ` ` ' [ ' ' U U U - j l U U U z U ' ' ` c l & @ @ 4 6 6 , w A #.",
"5.5.w.>.* x [ <.} { ,.,.[ [ ' ' [ ] ' [ ] U j l c j - l U [ { { [ [ ` l - - % @ & @ O r . . m | ",
"w.e.X.F & l ` [ { [ { ' ` ` ` [ ,.,.,.,.{ ] U l k c U [ ,.,.,.{ ' ` ` U c - - & # + O q o m #.4.",
"4.e...a $ - c ' ' ' ' ` ` ` [ ,.<.,.,.<.,.[ [ ` l U ] ,.<.<.,.,.[ ' ' ' U c - & + 4 6 > w i A %.",
"e.5.X.v 4 # - c U ` ` U U [ ,.,.,.,.{ ,.} { ,.[ ` ` [ ,.1.<.,.,.{ [ ' U U U l - @ 6 6 O 5 i . P ",
"5.4.9.$.B 5 @ - x U U x l ' ,.,.{ } ,.{ { { { ' ` ' [ } ,.,.{ { ] U l j - j l z & $ O + 7 u . P ",
"5.5.$. .0 6 3 # j l k - j U { ,.{ { ,.{ ' ' [ U z ' { [ [ [ { } [ ` U z l - j l - % O 5 r w y P ",
"5.5...a O 3 8 O @ & + @ - U ' { [ [ [ [ ' ` ] U l ' { ' ` ' } ,.,.{ [ ' U j - - & % O a y o y D ",
"5.w.*.a O + O O + @ % & - U ` U ` ' [ ` ' ] ` U _ [ ] ` ] { ,.{ ,.,.[ [ ] U l - @ + O r p y w P ",
"5.i.-.a O + @ + + # l j - l U U l U ' ' ` U _ U c ` ' ' [ ,.<.,.{ ,.{ [ ' ` k @ + O 6 6 a y o P ",
"u.u.*.r O % & @ @ j z l - - j U ; l U ] U - U j - U ` [ [ } ,.,.,.[ [ ` U U g 4 O 7 8 4 6 y   P ",
"i.u.P . r s & & @ @ - l U - - j U l l U _ z - - - - c ` [ { { { { [ ` ` U k h a a 3 4 a r     P ",
"i.5.P   i 7 & @ # & @ j l & & - l l l ` ] ` U z l l l l ` ' ' ' ` z l k j # 5 6 6 O # a y u S 6.",
"5.5...t y 6 + + @ & # # @ + @ & - l U [ { { { ' U U l j U U U c l - - % + + + O + + 4 r o m #.9.",
"4.4.4.#.m e 8 # + O 8 3 + & @ + & l ` U ` { ` U U l l U j - - % % - - & & + 5 a O 5 r w y y m ..",
"4.4.e.q.X.N w 6 4 + 3 6 3 # @ + - j z U U U U U l l z j & & & % % % % @ # 5 a a O 6 y y y t H %.",
"e.4.4.5.7.A . y 6 O + 3 8 4 # O & & - z l - c j - z l % + # & & @ O + O O a i 8 5 8 i r w m 7.5.",
"5.4.4.7.n e e w w 8 O + 4 a r 8 $ @ - - # @ - - - - & O a 7 + + + + + 5 a i 7 4 8 r r X o m 6.5.",
"5.5.5.9.K N w   y i 6 3 3 3 a p 6 5 % @ @ @ @ @ @ @ + + 5 6 6 6 3 3 6 a p i a 6 a y X   M P 9.5.",
"5.5.4.5.5.| t . w i i p a 3 6 r p 6 O O # & + + + O O O O 6 a a r r r y p i i i y y   m P 5.4.4.",
"5.5.5.5.5.4.#.t o o i p p p w w y p a a 5 + + + $ 6 a a r 3 O $ 6 i o w p y u o y o u L 7.e.e.e.",
"5.5.5.u.5.5.9.-.J M u i i w w w y y p p a 3 3 3 6 p p p w r 3 5 a i w e e y m M . m L 6.w.e.e.e.",
"5.u.u.5.5.5.5.i.t.=.M i y u y y w w e r r p p p i y y y . w p i i i y i . o C A M A 6.r.i.5.e.w.",
"u.u.i.5.5.5.5.5.u.y.;.V u G N o w w . . w p p p i w o w y i y . o o   N G u n P #.2.w.e.r.i.5.5.",
"i.u.u.5.5.5.4.5.e.u.9.o.P &. .V e t M . . . . w w     o . y u M e . V P o.L | 2.4.4.5.5.5.u.u.5.",
"u.i.5.4.5.5.5.5.5.e.e.5.e.4.8.O.V A I N t t t t e t t t t t N I J N X.7.2.3.3.4.5.5.4.4.5.i.u.5.",
"u.5.5.5.4.5.5.5.4.4.4.5.5.4.4.q.7.0.8.6.o.P I ..P P P P ..o.%.2.0.6.2.2.3.4.3.5.5.5.5.4.5.5.5.5.",
"5.5.5.5.4.4.5.5.4.4.5.5.4.4.5.5.u.u.5.4.9.7.8.8.7.8.8.7.9.9.3.4.5.4.4.3.5.5.5.4.4.5.5.4.4.3.5.5."
};
