/* XPM */
static char *Sprout_Lands_defautlt_palette[] = {
/* columns rows colors chars-per-pixel */
"16 7 98 2 ",
"   c #353738",
".  c #713970",
"X  c #474A4B",
"o  c #545959",
"O  c #6B4B5B",
"+  c #645552",
"@  c #795E53",
"#  c #505E77",
"$  c #754C60",
"%  c #566560",
"&  c #5F7A79",
"*  c #7B6762",
"=  c #6B7470",
"-  c #957A4B",
";  c #90625D",
":  c #A16159",
">  c #AA7959",
",  c #BA7C54",
"<  c #865161",
"1  c #8A4A70",
"2  c #A35B70",
"3  c #8C7369",
"4  c #AF6776",
"5  c #BD757E",
"6  c #67835C",
"7  c #78A158",
"8  c #6E967C",
"9  c #B09643",
"0  c #8DB15D",
"q  c #BFA954",
"w  c #9D866F",
"e  c #B68962",
"r  c #C49A6C",
"t  c #D79E61",
"y  c #EEBA77",
"u  c #A4C263",
"i  c #D4C169",
"p  c #C0D470",
"a  c #D2E077",
"s  c #EAE178",
"d  c #583F83",
"f  c #4C468B",
"g  c #504086",
"h  c #4A588E",
"j  c #5C4E92",
"k  c #555793",
"l  c #694A87",
"z  c #7B568C",
"x  c #685D9E",
"c  c #5F699C",
"v  c #577297",
"b  c #766DAA",
"n  c #90689F",
"m  c #867FB8",
"M  c #A77BB3",
"N  c #658CA1",
"B  c #7180B1",
"V  c #7BA6B4",
"C  c #818B83",
"Z  c #82A884",
"A  c #97BB8E",
"S  c #9DA89A",
"D  c #B2A486",
"F  c #D99A9A",
"G  c #DCB98A",
"H  c #C4BC93",
"J  c #E8B5AC",
"K  c #AED499",
"L  c #B1E0BE",
"P  c #F2CF8C",
"I  c #C2E09A",
"U  c #EEEE9B",
"Y  c #DED9AB",
"T  c #C1C8B9",
"R  c #E8CFA6",
"E  c #DFF0BB",
"W  c #E8EEAA",
"Q  c #F7EBAA",
"!  c #F0EFB9",
"~  c #8599C7",
"^  c #A09DD4",
"/  c #8CBFC2",
"(  c #92B2D4",
")  c #BCAFDE",
"_  c #C89DD1",
"`  c #D8B1E0",
"'  c #9BD4C3",
"]  c #99C5DE",
"[  c #DDD5DE",
"{  c #F3D8C5",
"}  c #D6F1CD",
"|  c #CBE0DE",
" . c #DCE0D2",
".. c #F3E5C2",
"X. c #F3F2C0",
"o. c #EBD6E0",
"O. c #F3F4E7",
"+. c None",
/* pixels */
". 1 2 4 5 F J { O < : , t y P Q ",
"@ - 9 q i s U X.% 6 7 0 u p a W ",
"# & 8 Z A K I E h v N V / ' L } ",
"f k c B ~ ( ] | g j x b m ^ ) [ ",
"d l z n M _ ` o.$ ; > e r G R ..",
"+ * 3 w D H Y !   X o = C S T  .",
"O.+.+.. . . . . . . . . . . . . "
};
