/* XPM */
static char *Doors[] = {
/* columns rows colors chars-per-pixel */
"16 64 7 1 ",
"  c #754C60",
". c #90625D",
"X c #AA7959",
"o c #C49A6C",
"O c #DCB98A",
"+ c #E8CFA6",
"@ c None",
/* pixels */
"  @@@@@@@@@@@@  ",
"oo @@@@@@@@@@ oo",
"oo @@@@@@@@@@ oo",
"oo @@@@@@@@@@ oo",
"OO @@@@@@@@@@ OO",
"XX @@@@@@@@@@ XX",
"XX @@@@@@@@@@ XX",
".. @@@@@@@@@@ ..",
"XX @@@@@@@@@@ XX",
"XX @@@@@@@@@@ XX",
"XX @@@@@@@@@@ XX",
".. @@@@@@@@@@ ..",
"XX @@@@@@@@@@ XX",
"XX @@@@@@@@@@ XX",
"XX @@@@@@@@@@ XX",
"   @@@@@@@@@@   ",
"  @@@@@@@@@@@@  ",
"oo @@@@@@@@@@ oo",
"oo @        @ oo",
"oo  oooooooo  oo",
"OO o........o OO",
"XX .......... XX",
"XX ..X....X.. XX",
".. ..X....X.. ..",
"XX ..X....X.. XX",
"XX ..X....X.. XX",
"XX ..X....++. XX",
".. ..X....X.. ..",
"XX ..X....X.. XX",
"XX ..X....X.. XX",
"XX .......... XX",
"                ",
"  @  @@@@@@@@@  ",
"oo o @@@@@@@@ oo",
"oo o @@@@@@@@ oo",
"oo . @@@@@@@@ oo",
"OO . @@@@@@@@ OO",
"XX . @@@@@@@@ XX",
"XX . @@@@@@@@ XX",
".. . @@@@@@@@ ..",
"XX . @@@@@@@@ XX",
"XX . @@@@@@@@ XX",
"XX . @@@@@@@@ XX",
".. . @@@@@@@@ ..",
"XX . @@@@@@@@ XX",
"XX . @@@@@@@@ XX",
"XX   @@@@@@@@ XX",
"   @@@@@@@@@@   ",
"  @@@@@  @@@@@  ",
"oo @@  oo @@@ oo",
"oo   oo.. @@@ oo",
"oo oo.... @@@ oo",
"OO ....X. @@@ OO",
"XX ....X. @@@ XX",
"XX .X..X. @@@ XX",
".. .X..X+ @@@ ..",
"XX .X..+. @@@ XX",
"XX .X..X. @@@ XX",
"XX .X..X. @@@ XX",
".. .X.... @@@ ..",
"XX .X.... @@@ XX",
"XX ....  @@@@ XX",
"XX ..  @@@@@@ XX",
"     @@@@@@@@   "
};
