/* XPM */
static char *Wooden_House_Walls_Tilset[] = {
/* columns rows colors chars-per-pixel */
"80 48 8 1 ",
"  c #754C60",
". c #90625D",
"X c #AA7959",
"o c #B68962",
"O c #C49A6C",
"+ c #DCB98A",
"@ c #E8CFA6",
"# c None",
/* pixels */
"############                        #############                              #",
"########### ooOOOOOOOOOOOOOOOOOOOOoo ########### ooOOOOOOOOOOOOOOOOOOOOOOOOOOoo ",
"########### oOOOOOOOOOOOOOOOOOOOOOOo ########### oOOOOOOOOOOOOOOOOOOOOOOOOOOOOo ",
"########### OOOOOOOOOOOOOOOOOOOOOOOO ########### OOOOOOOOOOOOOOOOOOOOOOOOOOOOOO ",
"########### OOO.++++++++++++++++.OOO ########### OOO.++++++++++++++++++++++.OOO ",
"########### OOO XXXXXXXXXXXXXXXX OOO ########### OOO XXXXXXXXXXXXXXXXXXXXXX OOO ",
"########### OOO XXXXXXXXXXXXXXXX OOO ########### OOO XXXXXXXXXXXXXXXXXXXXXX OOO ",
"########### OOO ................ OOO ########### OOO ...................... OOO ",
"########### OOO XXXXXXXXXXXXXXXX OOO ########### OOO XXXXXXXXXXXXXXXXXXXXXX OOO ",
"########### OOO XXXXXXXXXXXXXXXX OOO ########### OOO XXXXXXXXXXXXXXXXXXXXXX OOO ",
"########### OOO XXXXXXXXXXXXXXXX OOO ########### OOO XXXXXXXXXXXXXXXXXXXXXX OOO ",
"########### OOO ................ OOO ########### OOO ...................... OOO ",
"########### OOO XXXXXXXXXXXXXXXX OOO ########### OOO XXXXXXXXXXXXXXXXXXXXXX OOO ",
"########### OOO XXXXXXXXXXXXXXXX OOO ########### OOO XXXXXXXXXXXXXXXXXXXXXX OOO ",
"########### OOO XXXXXXXXXXXXXXXX OOO ########### OOO XXXXXXXXXXXXXXXXXXXXXX OOO ",
"########### OOO                  OOO ########### OOO                        OOO ",
"########### OOO @@+@@@@@@@+@@@@@ OOO ########### OOO.                      .OOO ",
"########### OOO @@+@@@@@@@+@@@@@ OOO ########### OOOOOOOOOOOOOOOOOOOOOOOOOOOOOO ",
"########### OOO @@+@@@@@@@+@@@@@ OOO ########### oOOOOOOOOOOOOOOOOOOOOOOOOOOOOo ",
"########### OOO ++++++++++++++++ OOO ########### ooOOOOOOOOOOOOOOOOOOOOOOOOOOoo ",
"########### OOO @@@@@@+@@@@@@@+@ OOO ########### .++++++++++++++++++++++++++++. ",
"########### OOO @@@@@@+@@@@@@@+@ OOO ########### XXXXXXXXXXXXXXXXXXXXXXXXXXXXXX ",
"########### OOO @@@@@@+@@@@@@@+@ OOO ########### XXXXXXXXXXXXXXXXXXXXXXXXXXXXXX ",
"########### OOO ++++++++++++++++ OOO ########### .............................. ",
"########### OOO @@+@@@@@@@+@@@@@ OOO ########### XXXXXXXXXXXXXXXXXXXXXXXXXXXXXX ",
"########### OOO @@+@@@@@@@+@@@@@ OOO ########### XXXXXXXXXXXXXXXXXXXXXXXXXXXXXX ",
"########### OOO @@+@@@@@@@+@@@@@ OOO ########### XXXXXXXXXXXXXXXXXXXXXXXXXXXXXX ",
"########### OOO ++++++++++++++++ OOO ########### .............................. ",
"########### OOO @@@@@@+@@@@@@@+@ OOO ########### XXXXXXXXXXXXXXXXXXXXXXXXXXXXXX ",
"########### OOO @@@@@@+@@@@@@@+@ OOO ########### XXXXXXXXXXXXXXXXXXXXXXXXXXXXXX ",
"########### OOO @@@@@@+@@@@@@@+@ OOO ########### XXXXXXXXXXXXXXXXXXXXXXXXXXXXXX ",
"########### OOO ++++++++++++++++ OOO ###########                                ",
"########### OOO.                .OOO ###########                ################",
"########### OOOOOOOOOOOOOOOOOOOOOOOO ###########OOOOOOOOOOOOOOOO################",
"########### oOOOOOOOOOOOOOOOOOOOOOOo ###########OOOOOOOOOOOOOOOO################",
"########### ooOOOOOOOOOOOOOOOOOOOOoo ###########OOOOOOOOOOOOOOOO################",
"########### .++++++++++++++++++++++. ###########++++++++++++++++################",
"########### XXXXXXXXXXXXXXXXXXXXXXXX ###########XXXXXXXXXXXXXXXX################",
"########### XXXXXXXXXXXXXXXXXXXXXXXX ###########XXXX        XXXX################",
"########### ........................ ###########.... ###### ....################",
"########### XXXXXXXXXXXXXXXXXXXXXXXX ###########XXXX ###### XXXX################",
"########### XXXXXXXXXXXXXXXXXXXXXXXX ###########XXXX ...... XXXX################",
"########### XXXXXXXXXXXXXXXXXXXXXXXX ###########XXXX OOOOOO XXXX################",
"########### ........................ ###########.... OOOOOO ....################",
"########### XXXXXXXXXXXXXXXXXXXXXXXX ###########XXXX ++++++ XXXX################",
"########### XXXXXXXXXXXXXXXXXXXXXXXX ###########XXXXXXXXXXXXXXXX################",
"########### XXXXXXXXXXXXXXXXXXXXXXXX ###########XXXXXXXXXXXXXXXX################",
"###########                          ###########                ################"
};
