/* XPM */
static char *result[] = {
/* columns rows colors chars-per-pixel */
"48 48 63 1 ",
"  c #292627",
". c #2B2A26",
"X c #2A2728",
"o c #2D2B2C",
"O c #312E2F",
"+ c #313126",
"@ c #373A25",
"# c #3A3E25",
"$ c #2F2F31",
"% c #312F31",
"& c #2F3031",
"* c #353334",
"= c #383637",
"- c #373739",
"; c #393638",
": c #3C3B3D",
"> c #403C3F",
", c #3C4127",
"< c #5B6D1F",
"1 c #515E20",
"2 c #556322",
"3 c #586723",
"4 c #5C6D21",
"5 c #596628",
"6 c #5E7022",
"7 c #617423",
"8 c #677B25",
"9 c #637429",
"0 c #687A29",
"q c #3F3F41",
"w c #413E41",
"e c #434344",
"r c #474649",
"t c #484749",
"y c #4A484C",
"u c #4F4B50",
"i c #514E52",
"p c #545156",
"a c #575359",
"s c #5A565B",
"d c #5D595F",
"f c #5E5A60",
"g c #605E63",
"h c #636166",
"j c #67666B",
"k c #69666C",
"l c #6B696E",
"z c #716D75",
"x c #76737A",
"c c #78757D",
"v c #78951E",
"b c #7E9B1F",
"n c #738D21",
"m c #7D9A20",
"M c #87A71E",
"N c #87AA1C",
"B c #8FB31E",
"V c #95BB1F",
"C c #83A220",
"Z c #8BAA2B",
"A c #9FC42C",
"S c #A4C92D",
"D c #7C7981",
/* pixels */
"VBBVVVBBVVAAVVVBBBVVVBBVVBNVVBVVVVVVSAVVVVVVVVVB",
"VVVVBBBBVVVAAVVVVVVVVVVVVBBVVBVBBVVVBAAVVAVVBBVV",
"VVVBBBVBBVVVAVVAVVVVVVVVVVVVBBVBBVVVBVSVAAVBBBBV",
"BBBBBVVBBVVBVVVVBBVVBVAAVVVBVVVBBVVVBVVVVVBBVVVB",
"BBBBVVVVVBVBBBVBBNVVBVAAVVVVVVVVBBVVVVVVVVBBVAVB",
"BVVVAAVVVBVVBBVBBBVVBVVAVBVAVVVVVVBVVVBBBBBBVAAV",
"VAAA9-xf:apq*:tsr-affffffffffa-rfffddga::>o4VAAA",
"VASA<-xkysy-o*eapysffffffffffsyufffffdsye:o<VVAS",
"VAAV<=xxdgw*Xo:pgfddffffffffsfffddfffdffi>o3VVVA",
"VVVV4=xxgsiw.*rafffsffffffffffffdffffdffp>o4VVVV",
"VBBV<=ckysiw&=tspyshdfddfffffsyiffddffsye1o<BBBB",
"VBBB4=zg:piw-:tpr:psssspssssfi:rssssssp:qq.<BBVV",
"BBBB<%siwrre,rereetttttrttttrreettttrtreqqo9VVVB",
"VVVV4o::****--**************************$$o5VVVB",
"VBBV4 XXXX+#@OXo.XX+@ XoX.X@+XXXXX.##+XooXX5VVVV",
"BBNB4o:-$X5MZ5X:-oX3n#*:&.#n3X::oX2bC<.:=Oo5BBVV",
"BNMB4Ouw% 9AS6Oye*X6C#:y;o,Z7oyr%X5BV6Oye%X4BBVV",
"BBBB4Oay% 9SV4Oay&X7C#ws;o#Z0%py%X4BV<%py%.5BVVV",
"VBBB4Oiy%.4VV4Oay*X7C#wa:o#Z0%py%X6VB<Opy%X7VVVV",
"VVBB6Oay%X4BV4%py&.0Z#ws:X#C6%py%X6BV3%py%.6SVVB",
"VVVV4Oay%X4MB4Opy$X0Z,ws-o#C7Opy%X6SV6%py%X9SVVB",
"VVVS9%at%X4MB4%py$X7C#ea:X#C<Opy%X6VS9%py%o9AVVV",
"BVVS9%py%X4BB4Opy$X7C#ea-X#M7%py%X6VB9%py$ 9VVVV",
"BVVB9%py%X2CM2Oir$X3n@wi:o#n3Oiy%.2CM2%py% 4VVZB",
"VBBV4Oay&X+#,+oe:*X+@.;e*oX@+oeq* +#,+Opt$X6VBBV",
"VBBV6Otw&Xo->*oyeOXO%X>y*oX*oote&Xo*q*oye*X4BBBV",
"VVBV<Ow>OX*rpw*py$X*>Oesqoo:*%pyoX*tpwOeq$o6BVVV",
"VVVV9OiyOX*rt*Opy$X=>ows-ooq*%py*X*rt*Oir$X6VVBC",
"VVAA9Opy* o**ooyw%Xo*X:y*oX*OOye$Xo**o%ay%X6VVBB",
"VASA<Oiy&X+##+oeq%X+@.-e*o.@+oe:*X+##+%ir$X6AVVV",
"AAAV4ow>oX2vM1%ir$X3n@qp:o@n5%iroX2MC1oeq%X6VAAV",
"SAVV7Oye*X3BV3oye*o7Z#:u*o#C7oye*X3BV4oye$X6VAAV",
"AVVV4OiyoX6BV4oeq%X0Z#*r*o,C6oe:*X6BB<oiy$X4VAVV",
"VVBV4oe>*X9VV4Oir$X0Z,qp:X,C7OutoX6BB4oe:%X4VVVB",
"BBVV<Oye$X9VA6Ote$X7Z,:u*o,M7Otr*X6VB3ote%X4VVVB",
"BBVV4Oiy$X2MZ5o>:$X3n#*e-X@n3o>:$X3Cb<*pr%X4BVVV",
"VBBV<oe:% O*,+o::$ +@X%q-oX@+o::$X+##+oeq$X6VBVV",
"VBBB3Oye% o$*XX1:$ o$ *q-XX&XX::$ o**Xote%X6BBBV",
"VVVB<Oir%Xqwuqqq:*%wt:qq&&*yr:::&*qui:opr%X6BBBV",
"VVBV4oew%XqdDDkq%*ikDcf$&efxDlq&*ukDDuoeq$X6VVBB",
"VVVV6o::%X-uflfe::udllpq:tahlge-,idjjro:q$X6VVVV",
"VVVA6o::$Xo*qrereeeeq1wr1eeeeeeereeee*o::$X6VVVV",
"VAAV6X**%Xo*eeeeeeeeqqwwqqeeeerereeee*X**$X9AVVB",
"AAAV6XXoo X$*****=*=q$q$qq*********=*oXooo 4AAVV",
"SAAV8######@#@##@#@###@#o####,##,######@##,8VAAV",
"AAVBZCMbCCCCCmbCCCCCCmmmmmCCZZCZZCCCmmmbCCmCVAAV",
"AVVVBVVVBBBVVBBVVAVVBBVVBBVVVVVVAVBBBBBVVVVBVVVV",
"VVVVBBVVBBVVBBVVASVBBBVVBVVBVVBVVBBBVVVBBVVBBBVV"
};
