/* XPM */
static char *result[] = {
/* columns rows colors chars-per-pixel */
"48 48 61 1 ",
"  c #3D2F24",
". c #3F3125",
"X c #423327",
"o c #453529",
"O c #48372A",
"+ c #47382A",
"@ c #4B3A2D",
"# c #503E2E",
"$ c #4D3C31",
"% c #513F32",
"& c #52422F",
"* c #554235",
"= c #584536",
"- c #5D4934",
"; c #574338",
": c #5A473A",
"> c #5E493E",
", c #644F36",
"< c #624C3D",
"1 c #684F39",
"2 c #635036",
"3 c #6B533D",
"4 c #6C5A3C",
"5 c #71573D",
"6 c #765B3F",
"7 c #785D3F",
"8 c #634D40",
"9 c #665040",
"0 c #6E5541",
"q c #745A41",
"w c #795E41",
"e c #776141",
"r c #7B6142",
"t c #816745",
"y c #846D47",
"u c #8B6B44",
"i c #866E48",
"p c #886E48",
"a c #86714D",
"s c #8D744C",
"d c #90774D",
"f c #947A4E",
"g c #867250",
"h c #897452",
"j c #8F7955",
"k c #947C56",
"l c #947D5A",
"z c #9B835C",
"x c #A1875D",
"c c #A58A5E",
"v c #AB8D5E",
"b c #AB915F",
"n c #A78A60",
"m c #AE8F60",
"M c #AD9061",
"N c #B39965",
"B c #BCA26D",
"V c #CBAF78",
"C c #CEB47B",
"Z c #D2B67E",
"A c #D3B87E",
/* pixels */
"uuuuuuuupuuuuuuuuuuuuuuuuuuuupuuuuuuuupuuuuuuuuu",
"uufvvvvvcMvbvvvvvvvvvvvvvvvmvvvvvvvvvvvvvvvbxfuu",
"ufbBVZAZZZACZZZZZZZZZZZZZZZCCZZZZZZZZZCZZZAVBbdu",
"uxBNBCZZZCZZZZZZCACZZZZZCZZZZZZZZZZZZZZZZZZBNBvu",
"uvVBxkzznnnnncnccccccnccncnncncnccccncnncxnMBVMu",
"uvZCk=:3qrrrrrrrrrtrrrtrrrrrrrrrrtrrrrrrrwrcCZmu",
"uvZCj*@=107577577755557557577557q57q757555rnZZmu",
"uvZCk=@*:300030939300303033030933933039303wnZZvu",
"uvACj$@@$***;>>>88><>>>8>>><>>>>>>>>>>>>><qcZZvu",
"uvZZho.Xoo@oo%:>:::<>>>>>>><>>:>>>>>>>>:><qcCZvu",
"uvZCgoO*-14,OO*=%%:;%;;;*;;;;:;;;;;;**=**=1zZZvu",
"uvACg@*9esky&X#*%%;%%%%%*%*%%%%%*&********-lCZvu",
"uvACg@*0rtfa&o@&::::::::::::<;:::::::::>::3xZZmu",
"uvZCgo$353ry&o#@%888>>>8>>>><>>>>>>>>>>>><qnZCmy",
"uvZCgo$14,ry&o++O$$%;>>>>8>>>>>>>>>>>>>>><qmZAvu",
"umZCgO*056pi&.ooXOOO$;>>>>>>>>>>>>>>>>>>><qnZCvu",
"pnACg@;07wsp*.$*<44&o#:<>>>>>>>>>>>>>><>><qmZZmu",
"pnACg+;05esi&@<qtff3o@;:::::::::>>::::::::0zZZvu",
"pmAAg+%07rsy&@1qepf4oO#*%%**%***;%%%**%**#-lCAvu",
"umAAr$;07ray&o>545p4o@&##*;=*==*;;;%*;;;=;,zCZvu",
"uvZCg@*05rsi&o;314p4o+@@@%**:>>>>>>>>>>>><qnCZcu",
"uvZCg@*07rsi&O>q5rs4X.XXXooo%>>>>>>>>8>>><qxZZmu",
"uvZCg@*07wst&O<q7td4Xo+%=-#XO=>>>>>>>>>>><qnZZmu",
"uvACg@*37wsi*O8q7td4o+=<553@o%;>>>8>>>>>><qnZZvu",
"uvACgO*05rsi&@<qqtd4o@:>8q1#+#&=>>>>>>>><:8zCZvu",
"uvZZgO*07rsi&@<qwtd4Xo*:*11@o##*==*=;;*=;*:lCZvu",
"uvAVg@;07rsy&$<q7td4Xo*:%<1@X+@@@@@$%****%=kZZvu",
"uvZZg$%057sy&@<q7ts4oO*:>31+ XoXXXoo*:::=>4xZZvu",
"pnZCg$%07rsi&@<q5td4o+=><45@.oo+$$XX%>>><<qnZZvu",
"uMZCgO;05rsi&$<qwtd4oO=>>51O.o@*::$X@*>>><0nZZvu",
"umZCg@%0wray&$<qqyd4o@*><33OX+#*;>$X@%*>>:8zZZvu",
"umZCg@;05rsy&@<q7rd4o@=><33+ o@+@;$o@#%*>>8zZAvu",
"umCVg$%0qrsi*@<q7td4o+=>>03+ XOoO;#XoOO##%>lZZmu",
"umACgO%0qray&@<q7td4o@=>>03@.o##&=$XXXXXoXOhCZvu",
"unACg$;0qwhi*@<qqtd4o+=><53+.+##*:$XXXXOOXogCZvu",
"unACg$%0wwsi&$<qerd4o+=>>51O.o##%:$ XOOO%OopCZvu",
"umZZiO%07wsp&@<qwtd4o@=>>03O.+##*:$XXOoO%OohCAmu",
"uvAZg$;07wsa&@<05td4o@=>>43O.+O#%:$  oooOOogCZmu",
"uvAVg@*05rsr&$<q7ta4.@;>803@.+##*:%X oXXOOohCZmu",
"umAZgo*0ewsy&$<q7yd4o@;>>03+.+##*=$Xoooo@OogCCvu",
"uvACg@*37rdp&$>qwyf5+&:><04@XO##*>$XoOOo#OogCZvu",
"uvACgo$<13e5&o;213e-.o$&%,-o oO+@$@  XXXOXohZZvu",
"umCCg@o$@&&&+o@@@&*@oo+@O$@oXoo+o@oooXoooXohCZvu",
"umCBzgggaaaggghhgaaiahaggggggaasaggggggagghzBCmu",
"uxVMBCCCCCCCCCCCZVZZCZVZVZVCCCCCCCCCZVZCZZVBNBvu",
"ufbBVZZZAZZZZAAAAZZZZAAAAAAAZZZZAZZZZZZZZAAVBbfu",
"uufcmmvvvvmvvvvvvvvvvvmvmnnmvvvcvvmvvvvvvvvvcduu",
"uuuuuuuuuuuuuuuuuuuuuuuuuuuuuuuuuuupuuuuuuuuuuuu"
};
