/* XPM */
static char *result[] = {
/* columns rows colors chars-per-pixel */
"48 48 6 1 ",
"  c #95BB1F",
". c #8FB31E",
"X c #9FC42C",
"o c #87AA1C",
"O c #A4C92D",
"+ c #BBDD44",
/* pixels */
" ..   ..  XX   ...   ..  .o  .      XX         .",
"    ....   XX            ..  . ..    XX  X  ..  ",
"   ... ..   X  X            .. ..   . X XX .... ",
".....  ..  .    ..  . XX   .   ..   .     ..   .",
"....     . ... ..o  . XX        ..        .. X .",
".   XX   .  .. ...  .  X . X      .   ...... XX ",
" XXXX   .      ..       ..    XXX .. ....... XXX",
" XOX   ..  XX     X      ..    XX    .o.....  XO",
" XX    .. XXOX    X      .o. .  X XX ...  ..   X",
"     ... .  XXX XX ...  ..o.     X  ..    ..    ",
" ..  .o....  XX XX .o.  .....      ...     .....",
" ...  ... ..  X. X .....   ....             ..  ",
"....  ..   .....   .....  .  ....  .  X   XX   .",
"    .  XX  .....    ....     .o.      XX       .",
" .. . XXX     .      ...     ...       X ..     ",
"..o..  XXXX XX   .  .    XX    ..  .       ...  ",
".oo.    XXXXX   .   .     XX      ..     .....  ",
"....     XXX   .     .     XX     .. ..  ....   ",
" ...  .       .   X   XX . XX X ..  ..o.        ",
"  ..  .. ...       XX XX .    X      ...    X  .",
"      .  ..o.      XX  X .   .     X   .   XX  .",
"   XX  XX .o.    .       .. ..  .   XXX   XXX   ",
".  XXX XO ...          ...    ...    XXX  XX    ",
".   XX XX     X     . ...     ..o     XXX X   ..",
" ..        .   XX    ...   ..  .o  .   XX    .. ",
" ..  . ...     XX X   ...  ..  ..          .... ",
"  .    ...     X  XX  .o.       .           .   ",
"    XX    ..         ..o.  XX       .    .    .o",
"  XXXX    ..     ..   ..   XXX   X    ....    ..",
" XOX   .. .o ..   .      ..XXX   XX   .o..  X   ",
"XXX   ... .o .o.       . .. XX  X   . .o.    XX ",
"OX     .  .. ....   X     ..    X ..  ....   XX ",
"X          .     . XX       ..     ....  ... X  ",
"  .  .   XX   .    XXXX  XX     .  ....  ...   .",
"..       XX X  .    XXX XX          ..    ..   .",
"..   ... X  XX ..    X  X    .              .   ",
" .. ....   .    ...            XX  .   XX    .  ",
" ....o.   ....  ....     ...    XXX   XXX   ... ",
"   ...   .   .      .   ....     XXX XXX    ... ",
"  .         .. XX       ..    ... XX XX ..    ..",
"        X  X . XXX   X        ...      ..       ",
"   X   XX XX ..XXX   X       . ..     ...       ",
" XX    XXXX  .. XX XX .. XX         . ...  XX  .",
"XXX     XXX ...     X ..  XXXX   X     o..  XX  ",
"OXX   .  X ....   .   ...  XXX   XX   ....   XX ",
"XX .         ..      ....   XX XX   ....  .. XX ",
"X   .   ...  ..  X  ..  ..      X .....    .    ",
"    ..  ..  ..  XX ...  .  .  .  ...   ..  ...  "
};
