/* XPM */
static char *result[] = {
/* columns rows colors chars-per-pixel */
"48 48 165 2 ",
"   c #020203",
".  c #2F2E2F",
"X  c #4D3926",
"o  c #413B3B",
"O  c #4D423A",
"+  c #52443C",
"@  c #53483A",
"#  c #594C3F",
"$  c #5D523F",
"%  c #6B4E31",
"&  c #634D3C",
"*  c #65503F",
"=  c #6A533D",
"-  c #755535",
";  c #7C5937",
":  c #74553A",
">  c #7A563B",
",  c #75593E",
"<  c #7D5B3C",
"1  c #79792F",
"2  c #7D6F3A",
"3  c #697534",
"4  c #6D7538",
"5  c #787C31",
"6  c #4F4A47",
"7  c #534B47",
"8  c #5C4E42",
"9  c #524A49",
"0  c #555447",
"q  c #5C5145",
"w  c #5D5249",
"e  c #5D5E5D",
"r  c #635143",
"t  c #6A5645",
"y  c #655549",
"u  c #685648",
"i  c #635A4A",
"p  c #6E5948",
"a  c #7A5D42",
"s  c #735D4A",
"d  c #795F4A",
"f  c #666848",
"g  c #776046",
"h  c #77644D",
"j  c #7A614A",
"k  c #796B4E",
"l  c #6C7345",
"z  c #747642",
"x  c #7C7642",
"c  c #737B45",
"v  c #7F7949",
"b  c #686750",
"n  c #6D6B53",
"m  c #6A6459",
"M  c #6D6959",
"N  c #72705F",
"B  c #A9181F",
"V  c #AD1A21",
"C  c #913D31",
"Z  c #8B4D3C",
"A  c #845E3C",
"S  c #84623D",
"D  c #8C653E",
"F  c #91673C",
"G  c #966B3F",
"H  c #986D3F",
"J  c #82713C",
"K  c #815F41",
"L  c #856343",
"P  c #8A6642",
"I  c #8D6944",
"U  c #84654A",
"Y  c #886749",
"T  c #866B4F",
"R  c #8D6C4A",
"E  c #946C43",
"W  c #996E44",
"Q  c #966149",
"!  c #916C4A",
"~  c #8F7147",
"^  c #847F45",
"/  c #8D714A",
"(  c #9C7246",
")  c #95724D",
"_  c #9D7449",
"`  c #806751",
"'  c #856B52",
"]  c #8A6D54",
"[  c #907153",
"{  c #98795E",
"}  c #A27646",
"|  c #A67846",
" . c #A87B47",
".. c #A37749",
"X. c #A57949",
"o. c #AA7D4A",
"O. c #A47C54",
"+. c #A87C50",
"@. c #77931C",
"#. c #78951F",
"$. c #78872C",
"%. c #758138",
"&. c #7F833A",
"*. c #7A8A38",
"=. c #7E9635",
"-. c #79854C",
";. c #87AA1C",
":. c #8FB31E",
">. c #95BB1F",
",. c #819C2B",
"<. c #838E3E",
"1. c #88893D",
"2. c #829A35",
"3. c #84943C",
"4. c #879C3A",
"5. c #899C3E",
"6. c #88A628",
"7. c #8DAC2C",
"8. c #8FB127",
"9. c #92B523",
"0. c #95BB21",
"q. c #98BC26",
"w. c #93B42A",
"e. c #96B82E",
"r. c #86A032",
"t. c #8EAA36",
"y. c #91AF34",
"u. c #92AE3B",
"i. c #95B334",
"p. c #9BBC33",
"a. c #94B238",
"s. c #9FC42C",
"d. c #9EC037",
"f. c #A0C42F",
"g. c #A4C92D",
"h. c #A0C431",
"j. c #828342",
"k. c #8A8546",
"l. c #858C46",
"z. c #8B874C",
"x. c #94874E",
"c. c #918C49",
"v. c #829442",
"b. c #899D42",
"n. c #8A8A59",
"m. c #958253",
"M. c #968959",
"N. c #819150",
"B. c #A8804D",
"V. c #AF8252",
"C. c #A6825C",
"Z. c #AB845B",
"A. c #B18454",
"S. c #B48857",
"D. c #B0875B",
"F. c #B68C5C",
"G. c #B98C5D",
"H. c #8CA243",
"J. c #8FA44A",
"K. c #95AE49",
"L. c #838383",
"P. c #A79A90",
"I. c #AAA5A1",
"U. c #BFBDBA",
"Y. c #CCCCCB",
/* pixels */
">.:.:.>.>.>.:.:.>.>.s.s.>.>.>.:.:.:.>.>.>.:.:.>.>.:.;.>.>.:.>.>.>.>.>.>.s.s.>.>.>.>.>.>.>.>.>.:.",
">.>.>.>.:.:.:.:.>.>.>.s.s.>.>.>.>.>.>.>.>.>.>.>.>.:.:.>.>.:.>.:.:.>.>.>.>.s.s.>.>.s.>.>.:.:.>.>.",
">.>.>.:.:.:.>.:.:.>.>.>.s.>.>.s.>.>.>.>.>.>.>.>.>.>.>.>.:.:.>.:.:.>.>.>.:.>.s.>.s.s.>.:.:.:.:.>.",
":.:.:.:.:.>.>.:.:.>.>.:.>.>.>.>.:.:.>.>.:.>.g.f.>.>.>.:.>.>.>.:.:.>.>.>.:.>.>.>.>.>.:.:.>.>.>.:.",
":.:.:.:.>.>.>.>.>.:.>.:.:.:.>.:.:.;.w.i.:.>.g.f.>.s.>.>.>.>.>.>.:.:.9.>.>.>.>.>.>.>.:.:.>.s.>.:.",
":.>.>.>.s.s.>.>.>.:.>.>.:.:.>.:.:.w.0 6 6.w.1.m.) k c.M.x.1.e.,.f =.:.>.>.>.:.:.:.:.:.:.>.s.s.>.",
">.s.s.s.s.>.>.>.:.>.>.>.>.>.>.:.:.r.9 9 b ) o.|  . . . .o.) x.@ 6 l :.:.>.:.:.:.:.:.:.:.>.s.s.s.",
">.s.g.s.>.>.>.:.:.>.>.s.s.>.>.>.>.=.9 @ O.| | | | | | | | |  .B.* l >.>.>.:.;.:.:.:.:.:.>.>.s.s.",
">.s.s.>.>.>.>.:.:.>.s.s.g.s.>.>.>.7.o ) | | | | | | | | | | | | X.4 s.s.>.:.:.:.>.>.:.:.>.>.>.s.",
">.>.>.>.>.:.:.:.>.:.>.>.s.s.s.>.s.s.h ( S | | | | | | | | | | } S m.0.0.:.:.>.>.>.>.:.:.>.>.>.>.",
">.:.:.>.>.:.;.:.:.:.:.>.>.s.s.>.s.p.W D W X.| | | | | | | | | | % _ t.:.:.:.>.>.>.>.>.:.:.:.:.:.",
">.:.:.:.>.>.:.:.:.>.:.:.>.>.s.:.>.b._ X.P.L.S  .| | | | | ( 7 I.}  .<.>.>.>.>.>.>.>.>.>.:.:.>.>.",
":.:.:.:.>.>.:.:.>.>.>.:.:.:.:.:.>.l.( _ Y.  X X.| | | | | -   Y.I | x :.>.>.s.>.>.>.s.s.>.>.>.:.",
">.>.>.>.:.>.>.s.s.>.>.:.:.:.:.:.w.~ | X.U.e % | | | | | } S . Y.( | z.>.>.>.s.s.>.>.>.0.0.>.>.:.",
">.:.:.>.:.>.s.s.s.>.>.>.>.>.:.>.b.} | | ( [ } | | | | | | } { ) } | I q.>.>.>.s.>.:.:.>.>.>.>.>.",
":.:.;.:.:.>.>.s.s.s.s.>.s.s.>.>.z X.| | | | | } ) ) ) ) _ | | | | | W a.>.>.>.>.>.>.>.:.:.:.>.>.",
":.;.;.:.>.>.>.>.s.s.s.s.s.>.>.5.! K | | | | | ' r ` ' j t _ | | | | P <.>.>.>.>.>.:.:.:.:.:.>.>.",
":.:.:.:.>.>.>.>.>.s.s.s.>.>.w.~ X.D | | | | o.[ * ` ' h * O.| | | ( a R 9.:.:.>.>.:.:.:.:.>.>.>.",
">.:.:.:.>.>.:.>.>.>.>.>.>.>.j.| ..D | | | | V.F.F.C.] C.F.F.| | | X.D X.l.:.;.:.>.>.>.>.>.>.>.>.",
">.>.:.:.>.>.:.:.>.:.:.:.>.a.W | | P | | | X.V.F.F.F.Z.F.F.S.| | | _ E  ./ w.:.:.>.>.>.>.s.>.>.:.",
">.>.>.>.>.>.:.>.>.:.:.;.8.k.| | | P | | | | V.F.G.G.D.G.F.S.X.X.| P ..| | b.>.:.>.>.>.s.s.>.>.:.",
">.>.>.s.s.>.>.s.s.>.:.;.8.! | | } E ( | | | V.D.Z Q ! Z O.S. .| | ! | | } x s.0.>.>.s.s.s.>.>.>.",
":.>.>.s.s.s.>.s.g.>.:.:.3.} | | | | ( | | | o.S.K B V C D.o.| | | | | | | l.s.s.>.>.s.s.>.>.>.>.",
":.>.>.>.s.s.>.s.s.>.>.>.k.X.| | | | | | } | | o.+.+.+.A.o.| | _ } | | | | / h.s.s.>.s.>.>.>.:.:.",
">.:.:.>.>.>.>.>.>.>.>.:.4 W | | | | | | I F X.| | | | | | | E Y | | | | | E N.s.s.>.>.>.>.:.:.>.",
">.:.:.>.>.:.>.:.:.:.>.>.z.X.| | | | | ( | } P P ! Q ! P P P } X.| | | | | ..= 7.>.>.>.:.:.:.:.>.",
">.>.:.>.>.>.>.:.:.:.0.0./ | | | | X.I W | | | | | | | | | | X.| | | | | | | > ^ >.>.>.>.:.>.>.>.",
">.>.>.>.s.s.>.>.>.>.:.*.W X.| | | | a L | | | | | | | | | | P | | | | | | X.> I 7.:.>.>.>.>.:.;.",
">.>.s.d.s.s.>.>.>.>.9.$ ..| | | | | I ..| | | | | | | | | } Y | | | | | | X.; E %.:.>.>.>.>.:.:.",
">.s.g.s.w.>.>.:.:.>.2.: X.| | | | | P X.| | | | | | | | | , L | | | | | | | > G 2.:.>.>.s.>.>.>.",
"s.s.s.>.0.0.:.:.:.>.&.< X.| | | | | | | | | | | | | | | ..L Y | | | | | | | - G $.>.>.>.>.s.f.>.",
"g.s.>.>.>.>.>.:.>.0.^ ; X.| | | | | | | | | | | | | | | } | | | | | | | | X.- E l.:.>.>.>.s.s.>.",
"s.>.>.>.>.>.>.>.>.>.2 < | | | | | | | | | | | | | | | | | | | | | | | | | ( - H 1 :.:.:.>.f.>.>.",
">.>.:.>.>.:.>.>.>.s.J A W | | | | | W | | | | | | | | | | | | | | | | | | S A H 1 :.:.:.>.>.>.:.",
":.:.>.>.>.>.>.>.>.s.J D P | | | | | D | | | | | | | | | | | X.} | | | | | P D H 5 >.:.:.>.>.>.:.",
":.:.>.>.>.:.:.:.>.s.j.G 2 | | | | | A | | | | | | | | | | | X.P | | | | X.S F E 3.>.>.>.:.>.>.>.",
">.:.:.>.:.:.:.:.>.>.1.W > | X.| | | P } | | ..| | | | | | | X.S | | | | | < G W 4.>.>.>.>.:.>.>.",
">.:.:.:.:.;.:.>.>.>.$.W A ( | | | | ! K | | P | | | | | | | X.P | | | | ( > ( a p.>.>.>.:.:.:.>.",
">.>.>.:.:.:.>.>.>.:.i.T E K | | | | P ( | | R | | | | | | | W P } ( X.| S ! D u.>.>.>.>.:.:.:.>.",
">.>.:.>.>.>.>.>.>.>.>.H.I ; ..| | X._ D | | P > X.X.| | | | : Y P U Y a A W n.>.:.:.>.>.>.>.:.:.",
">.>.>.>.>.>.>.>.f.>.>.s.^ D K _ _ R Y a | | } a E | | | |  .t d d p & D E v 0.:.:.>.>.>.>.>.>.>.",
">.>.>.s.>.>.>.s.s.>.s.s.y.m o d Y a g t W | | | | | | | | W & p p 8 + h 3.>.:.:.:.>.>.>.>.>.>.>.",
">.s.s.>.>.>.>.s.s.s.s.,.y r r + s t p u > E W ( ( _ W D R = u u u O w r *.0.:.:.:.>.>.s.s.>.>.:.",
"s.s.s.>.>.>.>.>.s.s.s.w.4.c M + # u u u y 2.@.#.K.t.t.d.J.r u u u 8 O z %.0.>.;.:.:.>.>.s.s.>.>.",
"g.s.s.>.>.>.:.>.>.g.>.:.:.8.w.n y u u u u l :.:.:.>.>.y.i r u i u 8 f 0.>.>.:.:.:.:.>.>.>.s.s.>.",
"s.s.>.:.>.>.>.>.>.>.>.>.>.:.-.# 8 q u 8 w 8 t.:.:.>.>.4 q m y w y N b 6.:.:.:.:.>.>.:.:.>.s.s.>.",
"s.>.>.>.:.>.>.>.:.:.:.>.>.:.2.,.n i 8 # H.3 w.0.:.:.>.i.8.c # y.-.3.:.:.:.:.:.>.>.>.>.:.>.>.>.>.",
">.>.>.>.:.:.>.>.:.:.>.>.:.:.>.>.K.a.u.v.:.:.>.>.:.>.>.:.0.0.8.>.0.:.:.:.>.>.>.:.:.>.>.:.:.:.>.>."
};
