/* XPM */
static char *_cf85ddc22ab4f6bcbcb05649230443brcW2I85MUVLPzhkq[] = {
/* columns rows colors chars-per-pixel */
"48 48 160 2 ",
"   c #564028",
".  c #54463B",
"X  c #644E39",
"o  c #66523E",
"O  c #69533A",
"+  c #795937",
"@  c #775A3D",
"#  c #65623C",
"$  c #68603A",
"%  c #4C4341",
"&  c #504745",
"*  c #524B40",
"=  c #5E4F42",
"-  c #544F4C",
";  c #5D5142",
":  c #5B5D46",
">  c #645445",
",  c #6A5544",
"<  c #655C45",
"1  c #6F5A46",
"2  c #665648",
"3  c #6A5748",
"4  c #695849",
"5  c #795F47",
"6  c #745F49",
"7  c #6C6242",
"8  c #696F45",
"9  c #6B6448",
"0  c #6A6848",
"q  c #786F40",
"w  c #736349",
"e  c #7E6248",
"r  c #786E49",
"t  c #6A7141",
"y  c #7E7745",
"u  c #767F46",
"i  c #7F7A46",
"p  c #72784D",
"a  c #797F49",
"s  c #815E3C",
"d  c #83613D",
"f  c #8C663E",
"g  c #8E693F",
"h  c #92683F",
"j  c #8A763D",
"k  c #827C3D",
"l  c #856544",
"z  c #8D6944",
"x  c #876C48",
"c  c #8A6848",
"v  c #936C44",
"b  c #996F44",
"n  c #946F49",
"m  c #8A7942",
"M  c #8C7F4B",
"N  c #957346",
"B  c #9C7245",
"V  c #937D43",
"C  c #9C7A45",
"Z  c #947649",
"A  c #9D754A",
"S  c #947D4C",
"D  c #9D7E4B",
"F  c #857251",
"G  c #8F7151",
"H  c #967455",
"J  c #9D7C56",
"K  c #987858",
"L  c #A37646",
"P  c #A67846",
"I  c #A87B47",
"U  c #A47748",
"Y  c #A47B4A",
"T  c #A97B49",
"R  c #A67E55",
"E  c #768E1A",
"W  c #758233",
"Q  c #778539",
"!  c #7B853C",
"~  c #7F8F3C",
"^  c #7D9337",
"/  c #87AA1C",
"(  c #8FB31E",
")  c #95BB1F",
"_  c #819C23",
"`  c #839C2E",
"'  c #8D8336",
"]  c #898B34",
"[  c #87803A",
"{  c #8B873B",
"}  c #8B8A3B",
"|  c #839635",
" . c #829A33",
".. c #8D9F37",
"X. c #829639",
"o. c #8B923C",
"O. c #879B3F",
"+. c #8B9939",
"@. c #939C37",
"#. c #94913E",
"$. c #929A3B",
"%. c #8DAC23",
"&. c #87A42D",
"*. c #8AA52D",
"=. c #8EAC2A",
"-. c #90A42E",
";. c #92AD2C",
":. c #8FB021",
">. c #93B523",
",. c #95BA22",
"<. c #93B42A",
"1. c #96B92A",
"2. c #9CBE2F",
"3. c #86A034",
"4. c #8BA635",
"5. c #8DA933",
"6. c #92A434",
"7. c #92AD31",
"8. c #91A139",
"9. c #9BBE34",
"0. c #9AB53A",
"q. c #9EBE38",
"w. c #9FC42C",
"e. c #9FC331",
"r. c #9FC038",
"t. c #A0C42E",
"y. c #A4C92D",
"u. c #A1C531",
"i. c #848344",
"p. c #8A8240",
"a. c #8A8C42",
"s. c #8D8A4A",
"d. c #948741",
"f. c #9B8644",
"g. c #928C44",
"h. c #988847",
"j. c #94854D",
"k. c #998149",
"l. c #98874A",
"z. c #98814F",
"x. c #908949",
"c. c #92884F",
"v. c #8B9743",
"b. c #929040",
"n. c #969242",
"m. c #939741",
"M. c #969940",
"N. c #919748",
"B. c #AC804E",
"V. c #AE8150",
"C. c #B18555",
"Z. c #B18B5B",
"A. c #B68B5B",
"S. c #B0885C",
"D. c #B58B5D",
"F. c #B78D5D",
"G. c #9F8E7F",
"H. c #A08166",
"J. c #A1866A",
"K. c #A5A4A2",
/* pixels */
") ( ( ) ) ) ( ( ) ) w.w.) ) ) ( ( ( ) ) ) ( ( ) ) ( / ) ) ( ) ) ) ) ) ) w.w.) ) ) ) ) ) ) ) ) ( ",
") ) ) ) ( ( ( ( ) ) ) w.w.) ) ) ) ) ) ) ) ) ) ) ) ( ( ) ) ( ) ( ( ) ) ) ) w.w.) ) w.) ) ( ( ) ) ",
") ) ) ( ( ( ) ( ( ) ) ) w.) ) w.) ) ) ) ) ) ) ) ) ) ) ) ( ( ) ( ( ) ) ) ( ) w.) w.w.) ( ( ( ( ) ",
"( ( ( ( ( ) ) ( ( ) ) ( ) ) ) ) ( ( ) ) ( ) w.w.) ) ) ( ) ) ) ( ( ) ) ) ( ) ) ) ) ) ( ( ) ) ) ( ",
"( ( ( ( ) ) ) ) ) ( ) ( ( ( ) ( ( / ) ) ( ) w.w.) ) ) ) ) ) ) ) ( ( ) ) ) ) ) ) ) ) ( ( ) w.) ( ",
"( ) ) ) w.w.) ) ) ( ) ) ( ( ) ( ( ( ) ) ( ) ) w.) ( ) e.4.4.,.=.,.) ( ) ) ) ( ( ( ( ( ( ) w.w.) ",
") w.w.w.w.) ) ) ( ) ) ) ) ) ) ( ( ) ) ) ) ) ) ) ( ( ,.` : - 0 * 8 ,.( ( ) ( ( ( ( ( ( ( ) w.w.w.",
") w.y.w.) ) ) ( ( ) ) w.w.) ) ) ) ) w.) ) ) ) ) ) >.8.r & % , A z g.6.<.>.( / ( ( ( ( ( ) ) w.y.",
") w.w.) ) ) ) ( ( ) w.w.y.w.) ) ) ) w.) ) ) ,.,.,.6.z.N 1 3 n P f R A l.$.-.=.( ) ) ( ( ) ) ) w.",
") ) ) ) ) ( ( ( ) ( ) ) w.w.w.) w.w.) ( ( ( ) ) 5.S P P B B L P H G.+ P P D #.6.<.,.( ( ) ) ) ) ",
") ( ( ) ) ( / ( ( ( ( ) ) w.w.) w.w.) ( / ( ,.=.x.Y P P P P P P H.K.  P P P U D n.6.,.( ( ( ( ( ",
") ( ( ( ) ) ( ( ( ) ( ( ) ) w.( ) w.) ( ( =.+.f.Y P P P P P P P Y J.f P P P P P Y S v.,.( ( ) ) ",
"( ( ( ( ) ) ( ( ) ) ) ( ( ( ( ( ) ) ) ( *.g.D P P P P P P P P P P L P P P P P B.R o w 9.) ) ) ( ",
") ) ) ) ( ) ) w.w.) ) ( ( ( ( ( ) ) ) ,.N.Y P P P P P P P P P P P P P P P P T C.D.G w <.) ) ) ( ",
") ( ( ) ( ) w.w.w.) ) ) ) ) ( ) ) ) ,.$.D P P P P P P P P P P P P P P P P P V.A.F.D.y ,.) ) ) ) ",
"( ( / ( ( ) ) w.w.w.w.) w.w.) ) ) >.6.D P P P P P P L P P P P P P P P P P P C.F.F.D.+.( ( ( ) ) ",
"( / / ( ) ) ) ) w.w.w.w.w.) ) ) ( ;.h.P P P P P L b v P P P P P P P P P L A R S.Z.j.>.( ( ( ) ) ",
"( ( ( ( ) ) ) ) ) w.w.w.) ) ) ( >.M.Y P P P P P b l U P P P P P P P L C B Y R J s.%.( ( ( ) ) ) ",
") ( ( ( ) ) ( ) ) ) ) ) ) ) ( ,.@.D P P P P P P v P P P P P P P P P V o.] ' d.n.;.,.) ) ) ) ) ) ",
") ) ( ( ) ) ( ( ) ( ( ( ) ) ,.$.D P P P P P P P P P P P P P P P P B ..) ,.%.%.( ) ) ) ) w.) ) ( ",
") ) ) ) ) ) ( ) ) ( ( / ( >.m.Y T P P P P P P P P P P P P P P P P Z ,.w.) ) ) ( ) ) ) w.w.) ) ( ",
") ) ) w.w.) ) w.w.) ( / =.#.Y P P P P P P P P P P P P P P P P P P m ) ) w.w.w.) ) ) w.w.w.) ) ) ",
"( ) ) w.w.w.) w.y.) ( %.g.Y P P P P P P P P P P P P P P P P P P P s.) ) ) w.w.w.) ) w.w.) ) ) ) ",
"( ) ) ) w.w.) w.w.) ;.h.T P P P P P P P P P P P P P P P P P P P P } ) ) ) ) w.w.w.) w.) ) ) ( ( ",
") ( ( ) ) ) ) ) ,.7.l.P P P P P P P P P P P P P P P P P L L P P P } ) ( ) ) ) w.w.) ) ) ) ( ( ) ",
") ( ( ) ) ( ) ( *.M T P P P P P P P P P P P P P P P P L v B P P P } ) ) ) ) ) ) ) ) ) ( ( ( ( ) ",
") ) ( ) ) ) ) :.$.Y P P P P P P P P L B L P P P P P P B v L P P L } ) ) ) ) ) ) ) ) ) ) ( ) ) ) ",
") ) ) ) w.w.) ;.k.I P P P P P P P P B b L P P P P P P P P P P P v O.) ) ( ) ) ) ) ( ) ) ) ) ( / ",
") ) w.w.w.w.,.$.P P P P P P P P P P b v L P P P P P P P P P P P x r.) ) ) ) ( ( ( ( ) ) ) ) ( ( ",
") w.y.w.) ) ,.k T P P P P P P P P P b v L P P P P P P P P P P P i.u.w.) ) ) ( / ( ( ) ) w.) ) ) ",
"w.w.w.) ) ) :.p.T P P P P P P P P P B B P P P P P P P P P P P P a.) ) ) ( ) ( / ( ) ) ) ) w.w.) ",
"y.w.) ) ) ) ,.j.L B L P P P P P P P L L P P P P P P P P P P P P { ) ( ( ) ) ( ( ( ( ) ) ) w.w.) ",
"w.) ) ) ) ) ,.S B v L P P P P P P P P P P P P P P P P P P P P P c.) ) ( ( ( ( ) ) ( ( ( ) w.) ) ",
") ) ( ) ) ( >.K L b B P P P P P P P P P P P P P P P P P P P P P m ) ) ( ( ( ( ) ) ( ( ( ) ) ) ( ",
"( ( ) ) ) ) >.v L L P P P P P P P P P P P P P P P P P P P P P L j ) ) ) ( ( ) ) ) ) ( ( ) ) ) ( ",
"( ( ) ) ) ( %.n P P P P P P P P P P P P P P P P P P P L L P P B F ) ) ) ) ) ) ) ) ) ) ) ( ) ) ) ",
") ( ( ) ( ( %.S P P P P P P P P P P P P P P P B P P L Z Z B B c 1 ) ) ( ) ) ) w.w.) ) ) ) ( ) ) ",
") ( ( ( ( / :.g.L P P P P P P P P P P P P P v z P L C o.a.x l e , u.w.) ) ) w.w.w.) ) ) ( ( ( ) ",
") ) ) ( ( ( ,.6.Z P P P P P P P P P P P P B v B P B { =.*.q 5 e , q.w.w.) w.w.w.) ) ) ) ( ( ( ) ",
") ) ( ) ) ) ) >.b.L P P P P P P P P P P P B L P v [ <.,.>.! 6 6 > =.w.w.) w.w.) ( ( ) ) ) ) ( ( ",
") ) ) ) ) ) ) ,.0.j.L P P P P P P P P P P L P b o.>.) ) ) ` 7 3 2  .) ) ) ) ) ( ( ) ) ) ) ) ) ) ",
") ) ) w.) ) ) w.w.7.x.N L L P P L P P P L h s 9 ^ =.,.) ) E $ 2 2 < ` ) ) ) ( ( ( ) ) ) ) ) ) ) ",
") w.w.) ) ) ) w.w.w.t.=.| i O X d g d @ o = > 4 = < | ) ) _ # ; > . # 1.( ) ( ( ( ) ) w.w.) ) ( ",
"w.w.w.) ) ) ) ) w.w.w.) ( ( =.5.3.4. .| ~ W ! a u  .w.w.w.2.Q X.t p &.,.) ) ) / ( ( ) ) w.w.) ) ",
"y.w.w.) ) ) ( ) ) w.) ( ( ( ( ) ) ) ( ) ) ) ( ( ( ) ) w.w.w.,.) ,.0.w.) ) ) ( ( ( ( ) ) ) w.w.) ",
"w.w.) ( ) ) ) ) ) ) ) ) ) ( ( ) ) ) ) ) ) ( ( ( ( ) ) ) w.w.) w.w.) ) ) ( ( ( ( ) ) ( ( ) w.w.) ",
"w.) ) ) ( ) ) ) ( ( ( ) ) ( ( ) ) w.) ) ( ( ) ) ( ( ) ) ) ) ) ) w.) ( ( ( ( ( ) ) ) ) ( ) ) ) ) ",
") ) ) ) ( ( ) ) ( ( ) ) ( ( ) ) w.w.) ( ( ( ) ) ( ) ) ( ) ) ( ) ) ( ( ( ) ) ) ( ( ) ) ( ( ( ) ) "
};
