/* XPM */
static char *_80d3da08b00400bd9b8c86584d554bcCEztDehDfsJM2tgl[] = {
/* columns rows colors chars-per-pixel */
"48 48 133 2 ",
"   c #4F443D",
".  c #5B4C3F",
"X  c #6E553F",
"o  c #6A6B3F",
"O  c #6B753C",
"+  c #777736",
"@  c #73783D",
"#  c #797A3E",
"$  c #514740",
"%  c #574B44",
"&  c #5C4D42",
"*  c #524A48",
"=  c #525047",
"-  c #5E5144",
";  c #604F42",
":  c #645345",
">  c #635C42",
",  c #6B5947",
"<  c #655648",
"1  c #685648",
"2  c #645A4B",
"3  c #6E5948",
"4  c #745B42",
"5  c #715B48",
"6  c #676645",
"7  c #6C6945",
"8  c #6A6D4C",
"9  c #756542",
"0  c #7E6145",
"q  c #7A6149",
"w  c #7D6E4D",
"e  c #6F7445",
"r  c #717541",
"t  c #727843",
"y  c #7D7B43",
"u  c #6A6655",
"i  c #6C6953",
"p  c #716E5A",
"a  c #707150",
"s  c #916F3F",
"d  c #8A7437",
"f  c #87773C",
"g  c #8A763A",
"h  c #8D7F3E",
"j  c #91733F",
"k  c #856646",
"l  c #8D6A46",
"z  c #8B6D4B",
"x  c #956D45",
"c  c #9B6F44",
"v  c #8F7545",
"b  c #8B7C41",
"n  c #8C724B",
"m  c #8A7F4B",
"M  c #937344",
"N  c #9D7345",
"B  c #947B46",
"V  c #9E7A46",
"C  c #96744A",
"Z  c #9B7248",
"A  c #987D4C",
"S  c #A37646",
"D  c #A67846",
"F  c #A87B47",
"G  c #A17648",
"H  c #A57A49",
"J  c #AA7D48",
"K  c #798533",
"L  c #7A8D35",
"P  c #75863A",
"I  c #78803E",
"U  c #7F9532",
"Y  c #7C8C44",
"T  c #87AA1C",
"R  c #8FB31E",
"E  c #95BB1F",
"W  c #829325",
"Q  c #869D25",
"!  c #87922D",
"~  c #8A952D",
"^  c #899C2B",
"/  c #8B823B",
"(  c #8B8C3F",
")  c #819535",
"_  c #8C9732",
"`  c #859B33",
"'  c #8C9934",
"]  c #84953C",
"[  c #8B943B",
"{  c #84993B",
"}  c #8D9A3F",
"|  c #9A903F",
" . c #919C3C",
".. c #88A526",
"X. c #8DAD25",
"o. c #86A22C",
"O. c #89A42A",
"+. c #8EAB2C",
"@. c #93AD2E",
"#. c #8FB221",
"$. c #93B524",
"%. c #95BA21",
"&. c #92B22D",
"*. c #97B82F",
"=. c #9BBF2C",
"-. c #8AA432",
";. c #8FA139",
":. c #8DA53B",
">. c #91A535",
",. c #95AC30",
"<. c #91AD34",
"1. c #93A239",
"2. c #96A838",
"3. c #93B232",
"4. c #9AB036",
"5. c #99B737",
"6. c #9BBD31",
"7. c #9DBD39",
"8. c #9DC02D",
"9. c #9FC42C",
"0. c #9FC132",
"q. c #A4C92D",
"w. c #8F8340",
"e. c #8C8C41",
"r. c #898844",
"t. c #8F854C",
"y. c #968544",
"u. c #95834E",
"i. c #91884A",
"p. c #8E9441",
"a. c #969242",
"s. c #958655",
"d. c #95A347",
/* pixels */
"E R R E E E R R E E 9.9.E E E R R R E E E R R E E R T E E R E E E E E E 9.9.E E E E E E E E E R ",
"E E E E R R R R E E E 9.9.E E E E E E E E E E E E R R E E R E R R E E E E 9.9.E E 9.E E R R E E ",
"E E E R R R E R R E E E 9.E E 9.E E E E E E E E E E E E R R E R R E E E R E 9.E 9.9.E R R R R E ",
"R R R R R E E R R E E R E E E E R R E E R E 9.9.E E E R E E E R R E E E R E E E E E R R E E E R ",
"R R R R E E E E E R E R R R E R R T E E R E 9.9.E E E E E E E E R R E E E E E E E E R R E 9.E R ",
"R E E E 9.9.E E E R E E R R E R R #.&.$.R E E 9.=.R E 9.E E E E E E R E E E R R R R R R E 9.9.E ",
"E 9.9.9.9.E E E R E E E E E E R #.` = O +.[ u.C w i.s.t.' -.e Y 8.E R R E R R R R R R R E 9.9.9.",
"E 9.q.9.E E E R R E E 9.9.E E E $.P * 2 n H F J J F F H A 9 % 8 8.E E E E R T R R R R R E E 9.q.",
"E 9.9.E E E E R R E 9.9.q.9.E E $.P % k H F F F F F D D F H k o =.E 9.9.E R R R E E R R E E E 9.",
"E E E E E R R R E R E E 9.9.9.E 8.{ 4 G F F F F F F F F D D H b $.9.E E R R E E E E R R E E E E ",
"E R R E E R T R R R R E E 9.9.E 9.2.x D F F D D F F F F F F D G @.E E R R R E E E E E R R R R R ",
"E R R R E E R R R E R R E E 9.R $. .N D D F D D F F F F F D D F [ E E E E E E E E E E E R R E E ",
"R R R R E E R R E E E R R R R R $.r.S F D S D D F F D D F F F H y E E R E E 9.E %.E 9.9.E E E R ",
"E E E E R E E 9.9.E E R R R R R @.M F F D D D D F D D D F F F D m E E E E E 9.9.%.%.E E E E E R ",
"E R R E R E 9.9.9.E E E E E R %.p.F F F D D F F F F D D D D F F l %.E E E E E 9.E R R E E E E E ",
"R R T R R E E 9.9.9.9.E 9.9.E $.y H F F D F F F F F D D D D D D x 5.E R E E E E E E E R R R E E ",
"R T T R E E E E 9.9.9.9.9.%.%.[ x N D D D D D D D D F D D D D D x ( #.R E E E E E R R R R R E E ",
"R R R R E E E E E 9.9.9.E E +.C F S D D D F F D D D D F D D D D D C +.R E R R E E R R R R E E E ",
"E R R R E E R E E E E E E $.b D F D D D D H H F F F F F F F D D D H e.%.R R T R E E E E E E E E ",
"E E R R E E R R E R R R E ;.N D D S D D D F F F F F F F F F D D D D B &.E R R R E E E E 9.E E R ",
"E E E E E E R E E R R T #.w.S D F S D D D D F F F F F D F F F F F F V } E E E R E E E 9.9.E E R ",
"E E E 9.9.E E 9.9.E R T o.V D D F F D D D D F F F F F D F F D F F F V ] 9.9.9.E E E 9.9.9.E E E ",
"R E E 9.9.9.E 9.q.E R R [ V F F F F F D D D D F F F D F D D D D F F G ( %.9.9.9.E E 9.9.E E E E ",
"R E E E 9.9.E 9.9.E E E K M F F F F F F D D D F F F D D D D D D F F S B :.E 9.9.9.E 9.E E E R R ",
"E R R E E E E E E E E R } G F F D D F F D D D D D D D F F F F F F F F N / $.E 9.9.E E E E R R E ",
"E R R E E R E R R R E $.w.S F F D D D F D D D D D D D D F F F F F F F D N ' %.E E E E R R R R E ",
"E E R E %.E E R R R %.U v D F F D D F F D F D D D D D D D D F F D F D D N / X.E E E E E R E E E ",
"E E E E 8.8.E E E E X.+ x F F F D D F F F F D D D D D D D D D D D D D D N h +.E E R E E E E R T ",
"E E 9.9.8.0.%.E E E o.f N D D D D D D D F F F D D D D D D D D D D D D D S / ..R R R E E E E R R ",
"E 9.q.9.E %.%.R R E ` M S D D D D D F F F F F D D D D D D D D D D F D D S h o.T R R E E 9.E E E ",
"9.9.9.%.E E R R R E ! M S D D D F F F F F F D D D D F F F F D F F F F F S g Q T R E E E E 9.9.E ",
"q.9.E E E E E R E E ! j D D D F F F F F F F F D D D F F F F F F F F F F S d Q R R R E E E 9.9.E ",
"9.E E E E E E E E E ~ s D F F F D D D D D D F F F D D D D D D D D D D D S g Q E E R R R E 9.E E ",
"E E R E E R E E E 9.1.M S F F F D F D D D D F F F D D D D D D D D D F D S h O.E E R R R E E E R ",
"R R E E E E E E E 9.>.j c D F F F F F F D D F F D D D D F F F F F F F D N / X.E E E R R E E E R ",
"R R E E E R R R E 9.+.b Z D F F F F F F D D F F D D D D F F F F F F F F N _ %.E E E E E R E E E ",
"E R R E R R R R E E %.[ M S D D D D D D F F F F D F D D D D F F F F D H | $.E 9.9.E E E E R E E ",
"E R R R R T R E E E R +./ N N S D D D D F F F F F F F F D D F D D D S y.,.E 9.9.9.E E E R R R E ",
"E E E R R R E E E R E %.-.w X l Z S D D F D F F F F F D N x l 0 4 z a.4.%.9.9.9.E E E E R R R E ",
"E E R E E E E E E E E X.@ < & . q 0 k k x N G G N c x k 4 5 3 . & , p.8.E 9.9.E R R E E E E R R ",
"E E E E E E E E 9.E E 6.` t u $ ; 1 , 1 # _ W d. .^ >.y 1 1 1 &   e L %.E E E R R E E E E E E E ",
"E E E 9.E E E 9.9.E 9.8.%.#.@.i 1 1 1 1 7 <.%.%.%.$.) < 1 1 1 % > $.%.E E E R R R E E E E E E E ",
"E 9.9.E E E E 9.9.9.9.E E R Y - - : : - - ) #.R E *.O 2 2 < < p 8 X.E E R E R R R E E 9.9.E E R ",
"9.9.9.E E E E E 9.9.9.E R R o.o.a 6 > I { O.#.R E %.7.:.r ] ] { %.9.E E E E E T R R E E 9.9.E E ",
"q.9.9.E E E R E E 9.E R R R R %.+.3.-.+.E E R R R E E 8.0.8.E E E 9.9.E E E R R R R E E E 9.9.E ",
"9.9.E R E E E E E E E E E R R E E E E E E R R R R E E E 9.9.E 9.9.E E E R R R R E E R R E 9.9.E ",
"9.E E E R E E E R R R E E R R E E 9.E E R R E E R R E E E E E E 9.E R R R R R E E E E R E E E E ",
"E E E E R R E E R R E E R R E E 9.9.E R R R E E R E E R E E R E E R R R E E E R R E E R R R E E "
};
